<?xml version="1.0" encoding="utf-8"?>
<!-- Generator: Adobe Illustrator 19.1.0, SVG Export Plug-In . SVG Version: 6.00 Build 0)  -->
<!DOCTYPE svg PUBLIC "-//W3C//DTD SVG 1.1//EN" "http://www.w3.org/Graphics/SVG/1.1/DTD/svg11.dtd">
<svg version="1.1" id="Layer_1" xmlns="http://www.w3.org/2000/svg" xmlns:xlink="http://www.w3.org/1999/xlink" x="0px" y="0px"
	 width="670px" height="406.7px" viewBox="0 0 670 406.7" style="enable-background:new 0 0 670 406.7;" xml:space="preserve">
<style type="text/css">
	.st0{fill:#4D4D4D;}
	.st1{fill:#404040;}
	.st2{fill:#FFFFFF;}
	.st3{fill:none;stroke:#9CB6D8;stroke-miterlimit:10;stroke-dasharray:5.0368,5.0368;}
	.st4{fill:#666666;}
	.st5{fill:#9CB6D8;}
	.st6{fill:#C1000D;}
	.st7{fill:#94BF00;}
	.st8{fill:#B3B3B3;}
	.st9{fill:none;stroke:#B3B3B3;stroke-width:3;stroke-miterlimit:10;}
	.st10{fill:none;stroke:#94BF00;stroke-width:3;stroke-miterlimit:10;}
</style>
<g>
	<path class="st0" d="M247.5,368.4H144.9c-1.1,0-2-0.9-2-2v-20.2c0-1.1,0.9-2,2-2h102.6c1.1,0,2,0.9,2,2v20.2
		C249.5,367.5,248.6,368.4,247.5,368.4z"/>
	<path class="st1" d="M247.5,368.4H144.9c-1.1,0-2-0.9-2-2v-20.2c0-1.1,0.9-2,2-2h102.6c1.1,0,2,0.9,2,2v20.2
		C249.5,367.5,248.6,368.4,247.5,368.4z"/>
	<path class="st2" d="M243.2,363.8h-43.4c-1.1,0-2-0.9-2-2v-10.9c0-1.1,0.9-2,2-2h43.4c1.1,0,2,0.9,2,2v10.9
		C245.2,362.9,244.3,363.8,243.2,363.8z"/>
	<circle class="st2" cx="150.8" cy="356.4" r="3.6"/>
	<circle class="st2" cx="160.6" cy="356.4" r="3.6"/>
</g>
<g>
	<path class="st0" d="M126.7,368.4H24.1c-1.1,0-2-0.9-2-2v-20.2c0-1.1,0.9-2,2-2h102.6c1.1,0,2,0.9,2,2v20.2
		C128.7,367.5,127.8,368.4,126.7,368.4z"/>
	<path class="st1" d="M126.7,368.4H24.1c-1.1,0-2-0.9-2-2v-20.2c0-1.1,0.9-2,2-2h102.6c1.1,0,2,0.9,2,2v20.2
		C128.7,367.5,127.8,368.4,126.7,368.4z"/>
	<path class="st2" d="M122.4,363.8H79c-1.1,0-2-0.9-2-2v-10.9c0-1.1,0.9-2,2-2h43.4c1.1,0,2,0.9,2,2v10.9
		C124.4,362.9,123.5,363.8,122.4,363.8z"/>
	<circle class="st2" cx="30" cy="356.4" r="3.6"/>
	<circle class="st2" cx="39.7" cy="356.4" r="3.6"/>
</g>
<g>
	<path class="st3" d="M251.7,397.3H19.9c-6.6,0-12-5.4-12-12v-42.8c0-6.6,5.4-12,12-12h231.8c6.6,0,12,5.4,12,12v42.8
		C263.7,391.9,258.3,397.3,251.7,397.3z"/>
</g>
<g>
	<path class="st4" d="M84.2,384.7c0,0.4,0.1,0.7,0.2,1c0.1,0.3,0.3,0.5,0.5,0.6c0.2,0.2,0.5,0.3,0.8,0.4c0.3,0.1,0.6,0.1,1,0.1
		c0.4,0,0.7,0,1-0.1c0.3-0.1,0.5-0.2,0.6-0.3c0.2-0.1,0.3-0.3,0.4-0.5c0.1-0.2,0.1-0.4,0.1-0.5c0-0.4-0.1-0.6-0.3-0.8
		c-0.2-0.2-0.4-0.3-0.6-0.4c-0.3-0.1-0.7-0.2-1.2-0.4c-0.5-0.1-1-0.3-1.7-0.4c-0.4-0.1-0.8-0.3-1-0.4c-0.3-0.2-0.5-0.4-0.7-0.6
		c-0.2-0.2-0.3-0.5-0.3-0.7c-0.1-0.2-0.1-0.5-0.1-0.8c0-0.5,0.1-0.9,0.3-1.3c0.2-0.4,0.5-0.7,0.8-0.9c0.3-0.2,0.7-0.4,1.1-0.5
		c0.4-0.1,0.9-0.2,1.3-0.2c0.5,0,1,0.1,1.4,0.2c0.5,0.1,0.8,0.3,1.2,0.6c0.3,0.3,0.6,0.6,0.8,1s0.3,0.8,0.3,1.3h-1.7
		c0-0.6-0.3-1.1-0.6-1.3c-0.4-0.3-0.9-0.4-1.5-0.4c-0.2,0-0.4,0-0.6,0.1c-0.2,0-0.4,0.1-0.6,0.2c-0.2,0.1-0.3,0.2-0.4,0.4
		c-0.1,0.2-0.2,0.4-0.2,0.6c0,0.3,0.1,0.6,0.3,0.8c0.2,0.2,0.5,0.3,0.8,0.4c0,0,0.2,0,0.4,0.1c0.2,0.1,0.5,0.1,0.8,0.2
		c0.3,0.1,0.6,0.2,0.9,0.2c0.3,0.1,0.5,0.1,0.6,0.2c0.3,0.1,0.6,0.2,0.8,0.4c0.2,0.2,0.4,0.4,0.6,0.6c0.2,0.2,0.3,0.5,0.4,0.7
		c0.1,0.3,0.1,0.5,0.1,0.8c0,0.5-0.1,1-0.3,1.4c-0.2,0.4-0.5,0.7-0.9,0.9c-0.4,0.2-0.8,0.4-1.2,0.5c-0.5,0.1-0.9,0.2-1.4,0.2
		c-0.6,0-1.1-0.1-1.6-0.2c-0.5-0.1-0.9-0.3-1.3-0.6c-0.4-0.3-0.7-0.6-0.9-1.1s-0.3-1-0.3-1.6H84.2z"/>
	<path class="st4" d="M92.9,384.8c0,0.3,0,0.5,0.1,0.8c0.1,0.3,0.2,0.5,0.3,0.7c0.2,0.2,0.4,0.3,0.6,0.5c0.2,0.1,0.5,0.2,0.8,0.2
		c0.5,0,0.8-0.1,1.1-0.3c0.3-0.2,0.5-0.5,0.6-0.9H98c-0.1,0.4-0.2,0.7-0.4,1c-0.2,0.3-0.4,0.6-0.7,0.8c-0.3,0.2-0.6,0.4-0.9,0.5
		c-0.4,0.1-0.7,0.2-1.1,0.2c-0.6,0-1-0.1-1.5-0.3c-0.4-0.2-0.8-0.4-1.1-0.8c-0.3-0.3-0.5-0.7-0.7-1.2s-0.2-1-0.2-1.5
		c0-0.5,0.1-1,0.2-1.4c0.2-0.5,0.4-0.8,0.7-1.2c0.3-0.3,0.7-0.6,1.1-0.8c0.4-0.2,0.9-0.3,1.4-0.3c0.6,0,1.1,0.1,1.5,0.3
		s0.8,0.5,1.1,0.9c0.3,0.4,0.5,0.8,0.6,1.3c0.1,0.5,0.2,1,0.1,1.5H92.9z M96.6,383.8c0-0.2-0.1-0.5-0.2-0.7
		c-0.1-0.2-0.2-0.4-0.4-0.6c-0.2-0.2-0.3-0.3-0.5-0.4c-0.2-0.1-0.5-0.2-0.7-0.2c-0.3,0-0.5,0-0.7,0.1c-0.2,0.1-0.4,0.2-0.6,0.4
		c-0.2,0.2-0.3,0.4-0.4,0.6c-0.1,0.2-0.1,0.5-0.2,0.7H96.6z"/>
	<path class="st4" d="M104.1,383.2c-0.1-0.4-0.2-0.8-0.5-1c-0.3-0.2-0.6-0.3-1.1-0.3c-0.2,0-0.4,0-0.6,0.1c-0.2,0.1-0.4,0.2-0.6,0.4
		c-0.2,0.2-0.4,0.4-0.5,0.8c-0.1,0.3-0.2,0.8-0.2,1.3c0,0.3,0,0.6,0.1,0.9c0.1,0.3,0.2,0.6,0.3,0.8c0.2,0.2,0.3,0.4,0.6,0.6
		c0.2,0.1,0.5,0.2,0.9,0.2c0.5,0,0.8-0.1,1.1-0.4c0.3-0.3,0.5-0.7,0.6-1.2h1.6c-0.1,0.9-0.5,1.6-1,2.1c-0.6,0.5-1.3,0.7-2.2,0.7
		c-0.6,0-1-0.1-1.5-0.3c-0.4-0.2-0.8-0.4-1.1-0.8c-0.3-0.3-0.5-0.7-0.7-1.2c-0.2-0.4-0.2-0.9-0.2-1.4c0-0.5,0.1-1,0.2-1.5
		c0.1-0.5,0.4-0.9,0.7-1.2c0.3-0.3,0.7-0.6,1.1-0.8c0.4-0.2,0.9-0.3,1.5-0.3c0.4,0,0.8,0.1,1.2,0.2c0.4,0.1,0.7,0.3,1,0.5
		c0.3,0.2,0.5,0.5,0.7,0.8c0.2,0.3,0.3,0.7,0.3,1.1H104.1z"/>
	<path class="st4" d="M113.1,387.9h-1.5v-1h0c-0.2,0.4-0.5,0.6-0.9,0.9c-0.4,0.2-0.8,0.3-1.2,0.3c-0.9,0-1.6-0.2-2-0.7
		s-0.6-1.2-0.6-2.1v-4.5h1.6v4.3c0,0.6,0.1,1.1,0.4,1.3c0.2,0.3,0.6,0.4,1,0.4c0.3,0,0.6,0,0.8-0.1s0.4-0.2,0.5-0.4
		c0.1-0.2,0.2-0.4,0.3-0.6c0.1-0.2,0.1-0.5,0.1-0.8v-4.1h1.6V387.9z"/>
	<path class="st4" d="M114.7,380.9h1.5v1.4h0c0-0.2,0.1-0.4,0.3-0.6c0.1-0.2,0.3-0.3,0.5-0.5c0.2-0.1,0.4-0.3,0.6-0.4
		c0.2-0.1,0.5-0.1,0.7-0.1c0.2,0,0.3,0,0.4,0c0.1,0,0.1,0,0.2,0v1.5c-0.1,0-0.2,0-0.3,0c-0.1,0-0.2,0-0.3,0c-0.3,0-0.5,0.1-0.7,0.2
		c-0.2,0.1-0.4,0.3-0.6,0.5c-0.2,0.2-0.3,0.5-0.4,0.8c-0.1,0.3-0.2,0.6-0.2,1v3.4h-1.6V380.9z"/>
	<path class="st4" d="M119.6,378.2h1.6v1.5h-1.6V378.2z M119.6,380.9h1.6v7.1h-1.6V380.9z"/>
	<path class="st4" d="M122.1,380.9h1.2v-2.1h1.6v2.1h1.4v1.2h-1.4v3.8c0,0.2,0,0.3,0,0.4c0,0.1,0,0.2,0.1,0.3c0,0.1,0.1,0.1,0.2,0.2
		c0.1,0,0.2,0.1,0.4,0.1c0.1,0,0.2,0,0.3,0c0.1,0,0.2,0,0.3,0v1.2c-0.2,0-0.3,0-0.5,0.1c-0.2,0-0.3,0-0.5,0c-0.4,0-0.7,0-1-0.1
		c-0.3-0.1-0.4-0.2-0.6-0.3c-0.1-0.1-0.2-0.3-0.3-0.6c-0.1-0.2-0.1-0.5-0.1-0.8V382h-1.2V380.9z"/>
	<path class="st4" d="M126.6,380.9h1.7l1.8,5.3h0l1.8-5.3h1.6l-2.7,7.4c-0.1,0.3-0.3,0.6-0.4,0.9c-0.1,0.3-0.3,0.5-0.5,0.8
		c-0.2,0.2-0.4,0.4-0.7,0.5c-0.3,0.1-0.6,0.2-1,0.2c-0.4,0-0.7,0-1.1-0.1v-1.3c0.1,0,0.3,0,0.4,0.1c0.1,0,0.2,0,0.4,0
		c0.2,0,0.3,0,0.5-0.1c0.1,0,0.2-0.1,0.3-0.2c0.1-0.1,0.1-0.2,0.2-0.3c0.1-0.1,0.1-0.3,0.1-0.4l0.2-0.5L126.6,380.9z"/>
	<path class="st4" d="M147,387.9h-1.1l-0.3-1.1c-0.5,0.5-0.9,0.9-1.4,1.1c-0.5,0.2-1,0.3-1.6,0.3c-0.7,0-1.4-0.1-2-0.4
		c-0.6-0.3-1.1-0.6-1.5-1.1c-0.4-0.5-0.7-1-0.9-1.6c-0.2-0.6-0.3-1.3-0.3-2c0-0.7,0.1-1.3,0.3-2c0.2-0.6,0.5-1.2,0.9-1.6
		c0.4-0.5,0.9-0.8,1.5-1.1c0.6-0.3,1.2-0.4,2-0.4c0.5,0,1,0.1,1.5,0.2c0.5,0.1,0.9,0.4,1.3,0.6s0.7,0.6,0.9,1
		c0.2,0.4,0.4,0.9,0.5,1.4h-1.7c0-0.3-0.1-0.6-0.3-0.8c-0.2-0.2-0.3-0.4-0.6-0.6s-0.5-0.3-0.8-0.4c-0.3-0.1-0.6-0.1-0.9-0.1
		c-0.5,0-1,0.1-1.3,0.3c-0.4,0.2-0.7,0.5-0.9,0.8c-0.2,0.4-0.4,0.7-0.5,1.2c-0.1,0.4-0.2,0.9-0.2,1.4c0,0.5,0.1,0.9,0.2,1.4
		c0.1,0.4,0.3,0.8,0.5,1.2c0.2,0.4,0.5,0.6,0.9,0.8c0.4,0.2,0.8,0.3,1.3,0.3c0.4,0,0.8,0,1.2-0.2c0.3-0.1,0.6-0.3,0.9-0.5
		c0.2-0.2,0.4-0.5,0.5-0.9c0.1-0.3,0.2-0.7,0.2-1.1h-2.6v-1.3h4.1V387.9z"/>
	<path class="st4" d="M148.6,380.9h1.5v1.4h0c0-0.2,0.1-0.4,0.3-0.6c0.1-0.2,0.3-0.3,0.5-0.5c0.2-0.1,0.4-0.3,0.6-0.4
		c0.2-0.1,0.5-0.1,0.7-0.1c0.2,0,0.3,0,0.4,0c0.1,0,0.1,0,0.2,0v1.5c-0.1,0-0.2,0-0.3,0c-0.1,0-0.2,0-0.3,0c-0.3,0-0.5,0.1-0.7,0.2
		c-0.2,0.1-0.4,0.3-0.6,0.5c-0.2,0.2-0.3,0.5-0.4,0.8c-0.1,0.3-0.1,0.6-0.1,1v3.4h-1.6V380.9z"/>
	<path class="st4" d="M156.4,388.1c-0.6,0-1.1-0.1-1.5-0.3c-0.4-0.2-0.8-0.4-1.1-0.8c-0.3-0.3-0.5-0.7-0.7-1.2
		c-0.2-0.5-0.2-1-0.2-1.5c0-0.5,0.1-1,0.2-1.5c0.2-0.5,0.4-0.8,0.7-1.2c0.3-0.3,0.7-0.6,1.1-0.8c0.4-0.2,0.9-0.3,1.5-0.3
		c0.6,0,1.1,0.1,1.5,0.3c0.4,0.2,0.8,0.4,1.1,0.8c0.3,0.3,0.5,0.7,0.7,1.2c0.2,0.5,0.2,1,0.2,1.5c0,0.5-0.1,1-0.2,1.5
		c-0.2,0.5-0.4,0.8-0.7,1.2c-0.3,0.3-0.7,0.6-1.1,0.8C157.5,388,157,388.1,156.4,388.1z M156.4,386.9c0.3,0,0.6-0.1,0.9-0.2
		c0.3-0.1,0.5-0.3,0.6-0.6c0.2-0.2,0.3-0.5,0.4-0.8c0.1-0.3,0.1-0.6,0.1-0.9c0-0.3,0-0.6-0.1-0.9c-0.1-0.3-0.2-0.6-0.4-0.8
		c-0.2-0.2-0.4-0.4-0.6-0.6c-0.3-0.1-0.6-0.2-0.9-0.2s-0.6,0.1-0.9,0.2c-0.3,0.1-0.5,0.3-0.6,0.6c-0.2,0.2-0.3,0.5-0.4,0.8
		c-0.1,0.3-0.1,0.6-0.1,0.9c0,0.3,0,0.6,0.1,0.9c0.1,0.3,0.2,0.6,0.4,0.8c0.2,0.2,0.4,0.4,0.6,0.6
		C155.7,386.8,156,386.9,156.4,386.9z"/>
	<path class="st4" d="M167.4,387.9h-1.5v-1h0c-0.2,0.4-0.5,0.6-0.9,0.9c-0.4,0.2-0.8,0.3-1.2,0.3c-0.9,0-1.6-0.2-2-0.7
		s-0.6-1.2-0.6-2.1v-4.5h1.6v4.3c0,0.6,0.1,1.1,0.4,1.3c0.2,0.3,0.6,0.4,1,0.4c0.3,0,0.6,0,0.8-0.1c0.2-0.1,0.4-0.2,0.5-0.4
		c0.1-0.2,0.2-0.4,0.3-0.6c0.1-0.2,0.1-0.5,0.1-0.8v-4.1h1.6V387.9z"/>
	<path class="st4" d="M169.1,380.9h1.5v1h0c0.2-0.4,0.5-0.7,0.9-0.9c0.4-0.2,0.8-0.3,1.3-0.3c0.6,0,1,0.1,1.5,0.3
		c0.4,0.2,0.8,0.5,1,0.8c0.3,0.3,0.5,0.7,0.6,1.2c0.1,0.5,0.2,0.9,0.2,1.5c0,0.5-0.1,0.9-0.2,1.4c-0.1,0.4-0.3,0.8-0.6,1.2
		c-0.3,0.3-0.6,0.6-0.9,0.8c-0.4,0.2-0.8,0.3-1.4,0.3c-0.2,0-0.5,0-0.7-0.1s-0.4-0.1-0.7-0.2c-0.2-0.1-0.4-0.2-0.6-0.3
		c-0.2-0.1-0.3-0.3-0.4-0.5h0v3.5h-1.6V380.9z M174.5,384.4c0-0.3,0-0.6-0.1-0.9c-0.1-0.3-0.2-0.6-0.4-0.8c-0.2-0.2-0.4-0.4-0.6-0.6
		c-0.2-0.1-0.5-0.2-0.8-0.2c-0.7,0-1.1,0.2-1.5,0.7s-0.5,1.1-0.5,1.8c0,0.4,0,0.7,0.1,1c0.1,0.3,0.2,0.6,0.4,0.8
		c0.2,0.2,0.4,0.4,0.6,0.5c0.2,0.1,0.5,0.2,0.8,0.2c0.4,0,0.7-0.1,0.9-0.2c0.2-0.1,0.4-0.3,0.6-0.6c0.2-0.2,0.3-0.5,0.3-0.8
		C174.5,385,174.5,384.7,174.5,384.4z"/>
	<path class="st4" d="M184,378.2h1.8l3.8,9.7h-1.8l-0.9-2.6H183l-0.9,2.6h-1.8L184,378.2z M183.4,384.1h3l-1.5-4.2h0L183.4,384.1z"
		/>
</g>
<g>
	<g>
		<g>
			<path class="st2" d="M73.3,338.3c-5.2-2.5-8.6-5.6-10.6-9.9c-2-4.3-2.6-9.8-2-17.3l0.1-0.9h0.9c0,0,0,0,0.1,0
				c0.5,0,3.5-0.1,6.4-1.4c2.6-1.2,5.5-3,5.5-3s3,1.8,5.5,3c2.9,1.4,5.8,1.4,6.4,1.4c0,0,0.1,0,0.1,0h0.9l0.1,0.9
				c0.6,7.5,0,13-2,17.3c-2,4.3-5.4,7.4-10.6,9.9l-0.4,0.2L73.3,338.3z"/>
		</g>
	</g>
	<path class="st5" d="M73.7,338.4v-16.3h12.8c0.5-3.1,0.5-6.8,0.2-11.1l-0.1-0.9h-0.9c0,0,0,0-0.1,0c-0.5,0-3.5-0.1-6.4-1.4
		c-2.6-1.2-5.5-3-5.5-3v16.3H61c0.4,2.4,1,4.4,1.8,6.2c2,4.3,5.4,7.4,10.6,9.9L73.7,338.4L73.7,338.4L73.7,338.4z"/>
	<path class="st5" d="M73.8,339.5l-0.8-0.4c-5.5-2.5-9-5.9-11.1-10.4c-2.1-4.4-2.7-10.1-2.1-17.8l0.2-1.8l1.8,0h0.1
		c0.3,0,3.2,0,6-1.3c2.5-1.2,5.5-2.9,5.5-2.9l0.5-0.3l0.5,0.3c0,0,3,1.8,5.5,2.9c2.8,1.3,5.7,1.3,6,1.3h0.9l0.9,0l0.2,1.7
		c0.6,7.7,0,13.4-2.1,17.8c-2.1,4.5-5.6,7.8-11.1,10.4L73.8,339.5z M73.7,337.4L73.7,337.4c5-2.3,8.2-5.3,10.1-9.4
		c1.9-4.1,2.5-9.4,1.9-16.8h-0.1c-0.6,0-3.7-0.1-6.8-1.5c-2-0.9-4.2-2.2-5.2-2.7c-1,0.5-3.1,1.8-5.2,2.7c-3.1,1.5-6.2,1.5-6.8,1.5
		h-0.1c-0.6,7.3,0,12.7,1.9,16.8C65.5,332,68.7,335,73.7,337.4z"/>
</g>
<g>
	<g>
		<g>
			<path class="st2" d="M195.7,338.3c-5.2-2.5-8.6-5.6-10.6-9.9c-2-4.3-2.6-9.8-2-17.3l0.1-0.9h0.9c0,0,0,0,0.1,0
				c0.5,0,3.5-0.1,6.4-1.4c2.6-1.2,5.5-3,5.5-3s3,1.8,5.5,3c2.9,1.4,5.8,1.4,6.4,1.4c0,0,0.1,0,0.1,0h0.9l0.1,0.9
				c0.6,7.5,0,13-2,17.3c-2,4.3-5.4,7.4-10.6,9.9l-0.4,0.2L195.7,338.3z"/>
		</g>
	</g>
	<path class="st5" d="M196.2,338.4v-16.3H209c0.5-3.1,0.5-6.8,0.2-11.1l-0.1-0.9h-0.9c0,0,0,0-0.1,0c-0.5,0-3.5-0.1-6.4-1.4
		c-2.6-1.2-5.5-3-5.5-3v16.3h-12.8c0.4,2.4,1,4.4,1.8,6.2c2,4.3,5.4,7.4,10.6,9.9L196.2,338.4L196.2,338.4L196.2,338.4z"/>
	<path class="st5" d="M196.2,339.5l-0.8-0.4c-5.5-2.5-9-5.9-11.1-10.4c-2.1-4.4-2.7-10.1-2.1-17.8l0.2-1.8l1.8,0h0.1
		c0.3,0,3.2,0,6-1.3c2.5-1.2,5.5-2.9,5.5-2.9l0.5-0.3l0.5,0.3c0,0,3,1.8,5.5,2.9c2.8,1.3,5.7,1.3,6,1.3h0.9l0.9,0l0.2,1.7
		c0.6,7.7,0,13.4-2.1,17.8c-2.1,4.5-5.6,7.8-11.1,10.4L196.2,339.5z M196.1,337.4L196.1,337.4c5-2.3,8.2-5.3,10.1-9.4
		c1.9-4.1,2.5-9.4,1.9-16.8h-0.1c-0.6,0-3.7-0.1-6.8-1.5c-2-0.9-4.2-2.2-5.2-2.7c-1,0.5-3.1,1.8-5.2,2.7c-3.1,1.5-6.2,1.5-6.8,1.5
		h-0.1c-0.6,7.3,0,12.7,1.9,16.8C187.9,332,191.1,335,196.1,337.4z"/>
</g>
<g>
	<path class="st4" d="M46.8,288.2c0.5,0,0.9,0.1,1.2,0.2s0.7,0.3,1,0.6s0.5,0.6,0.6,0.9c0.1,0.4,0.2,0.8,0.2,1.2s-0.1,0.9-0.2,1.2
		s-0.3,0.7-0.6,0.9s-0.6,0.4-1,0.6s-0.8,0.2-1.2,0.2h-3.5v4.3h-1v-10.1H46.8z M46.6,293.1c0.7,0,1.2-0.2,1.6-0.5s0.6-0.9,0.6-1.6
		s-0.2-1.2-0.6-1.6s-1-0.5-1.6-0.5h-3.3v4.2H46.6z"/>
	<path class="st4" d="M52.1,288.2v6.3c0,0.6,0.1,1.1,0.2,1.5s0.3,0.7,0.6,1c0.3,0.3,0.6,0.5,0.9,0.6c0.4,0.1,0.8,0.2,1.3,0.2
		c0.5,0,0.9-0.1,1.3-0.2c0.4-0.1,0.7-0.3,0.9-0.6s0.5-0.6,0.6-1c0.1-0.4,0.2-0.9,0.2-1.5v-6.3h1v6.5c0,0.5-0.1,1-0.2,1.5
		c-0.1,0.5-0.4,0.9-0.7,1.2c-0.3,0.4-0.7,0.6-1.2,0.8c-0.5,0.2-1.1,0.3-1.8,0.3c-0.7,0-1.3-0.1-1.8-0.3c-0.5-0.2-0.9-0.5-1.2-0.8
		c-0.3-0.3-0.5-0.8-0.7-1.2c-0.1-0.5-0.2-1-0.2-1.5v-6.5H52.1z"/>
	<path class="st4" d="M65.2,288.2c0.4,0,0.8,0,1.2,0.1c0.4,0.1,0.7,0.2,1,0.4c0.3,0.2,0.5,0.5,0.7,0.8c0.2,0.3,0.3,0.7,0.3,1.2
		c0,0.3,0,0.5-0.1,0.8c-0.1,0.3-0.2,0.5-0.4,0.7c-0.2,0.2-0.3,0.4-0.6,0.5c-0.2,0.1-0.5,0.2-0.7,0.3v0c0.7,0.1,1.2,0.4,1.6,0.8
		c0.4,0.5,0.6,1,0.6,1.7c0,0.2,0,0.3,0,0.5c0,0.2-0.1,0.4-0.2,0.6s-0.2,0.4-0.4,0.6s-0.4,0.4-0.6,0.5s-0.6,0.3-1,0.4
		s-0.9,0.1-1.4,0.1h-4.3v-10.1H65.2z M65.2,292.6c0.4,0,0.7,0,1-0.1c0.3-0.1,0.5-0.2,0.7-0.4s0.3-0.3,0.4-0.5
		c0.1-0.2,0.1-0.4,0.1-0.7c0-1.3-0.8-1.9-2.3-1.9h-3.3v3.6H65.2z M65.2,297.5c0.4,0,0.7,0,1-0.1c0.3-0.1,0.6-0.2,0.9-0.3
		s0.4-0.4,0.6-0.6s0.2-0.6,0.2-1c0-0.7-0.2-1.1-0.7-1.5c-0.5-0.3-1.1-0.5-2-0.5h-3.3v4.1H65.2z"/>
	<path class="st4" d="M71.4,288.2v9.3h5.7v0.8h-6.7v-10.1H71.4z"/>
	<path class="st4" d="M79.1,288.2v10.1h-1v-10.1H79.1z"/>
	<path class="st4" d="M88.2,290.2c-0.2-0.3-0.4-0.6-0.7-0.8c-0.3-0.2-0.6-0.4-0.9-0.5c-0.3-0.1-0.7-0.2-1.1-0.2
		c-0.7,0-1.3,0.1-1.7,0.4c-0.5,0.3-0.9,0.6-1.2,1c-0.3,0.4-0.5,0.9-0.7,1.4c-0.1,0.5-0.2,1.1-0.2,1.6c0,0.5,0.1,1.1,0.2,1.6
		c0.1,0.5,0.4,1,0.7,1.4c0.3,0.4,0.7,0.8,1.2,1c0.5,0.3,1.1,0.4,1.7,0.4c0.5,0,0.9-0.1,1.3-0.3c0.4-0.2,0.7-0.4,1-0.7s0.5-0.6,0.7-1
		c0.2-0.4,0.3-0.8,0.3-1.3h1c-0.1,0.6-0.2,1.2-0.4,1.7c-0.2,0.5-0.5,0.9-0.9,1.3c-0.4,0.4-0.8,0.6-1.3,0.8c-0.5,0.2-1,0.3-1.6,0.3
		c-0.8,0-1.5-0.1-2.1-0.4s-1.1-0.7-1.5-1.2s-0.7-1-0.9-1.7c-0.2-0.6-0.3-1.3-0.3-2s0.1-1.4,0.3-2c0.2-0.6,0.5-1.2,0.9-1.7
		s0.9-0.9,1.5-1.2s1.3-0.4,2.1-0.4c0.5,0,1,0.1,1.4,0.2c0.5,0.1,0.9,0.4,1.3,0.6c0.4,0.3,0.7,0.6,0.9,1s0.4,0.9,0.5,1.4h-1
		C88.6,290.9,88.4,290.5,88.2,290.2z"/>
	<path class="st4" d="M96.2,288.2v10.1h-1v-10.1H96.2z"/>
	<path class="st4" d="M102.8,288.2c0.5,0,0.9,0.1,1.2,0.2s0.7,0.3,1,0.6s0.5,0.6,0.6,0.9c0.1,0.4,0.2,0.8,0.2,1.2s-0.1,0.9-0.2,1.2
		s-0.3,0.7-0.6,0.9s-0.6,0.4-1,0.6s-0.8,0.2-1.2,0.2h-3.5v4.3h-1v-10.1H102.8z M102.6,293.1c0.7,0,1.2-0.2,1.6-0.5s0.6-0.9,0.6-1.6
		s-0.2-1.2-0.6-1.6s-1-0.5-1.6-0.5h-3.3v4.2H102.6z"/>
</g>
<g>
	<path class="st4" d="M169.2,288.2c0.5,0,0.9,0.1,1.2,0.2s0.7,0.3,1,0.6s0.5,0.6,0.6,0.9c0.1,0.4,0.2,0.8,0.2,1.2s-0.1,0.9-0.2,1.2
		s-0.3,0.7-0.6,0.9s-0.6,0.4-1,0.6s-0.8,0.2-1.2,0.2h-3.5v4.3h-1v-10.1H169.2z M169,293.1c0.7,0,1.2-0.2,1.6-0.5s0.6-0.9,0.6-1.6
		s-0.2-1.2-0.6-1.6s-1-0.5-1.6-0.5h-3.3v4.2H169z"/>
	<path class="st4" d="M174.5,288.2v6.3c0,0.6,0.1,1.1,0.2,1.5s0.3,0.7,0.6,1c0.3,0.3,0.6,0.5,0.9,0.6c0.4,0.1,0.8,0.2,1.3,0.2
		c0.5,0,0.9-0.1,1.3-0.2c0.4-0.1,0.7-0.3,0.9-0.6s0.5-0.6,0.6-1c0.1-0.4,0.2-0.9,0.2-1.5v-6.3h1v6.5c0,0.5-0.1,1-0.2,1.5
		c-0.1,0.5-0.4,0.9-0.7,1.2c-0.3,0.4-0.7,0.6-1.2,0.8c-0.5,0.2-1.1,0.3-1.8,0.3c-0.7,0-1.3-0.1-1.8-0.3c-0.5-0.2-0.9-0.5-1.2-0.8
		c-0.3-0.3-0.5-0.8-0.7-1.2c-0.1-0.5-0.2-1-0.2-1.5v-6.5H174.5z"/>
	<path class="st4" d="M187.7,288.2c0.4,0,0.8,0,1.2,0.1c0.4,0.1,0.7,0.2,1,0.4c0.3,0.2,0.5,0.5,0.7,0.8c0.2,0.3,0.3,0.7,0.3,1.2
		c0,0.3,0,0.5-0.1,0.8c-0.1,0.3-0.2,0.5-0.4,0.7c-0.2,0.2-0.3,0.4-0.6,0.5c-0.2,0.1-0.5,0.2-0.7,0.3v0c0.7,0.1,1.2,0.4,1.6,0.8
		c0.4,0.5,0.6,1,0.6,1.7c0,0.2,0,0.3,0,0.5c0,0.2-0.1,0.4-0.2,0.6s-0.2,0.4-0.4,0.6s-0.4,0.4-0.6,0.5s-0.6,0.3-1,0.4
		s-0.9,0.1-1.4,0.1h-4.3v-10.1H187.7z M187.7,292.6c0.4,0,0.7,0,1-0.1c0.3-0.1,0.5-0.2,0.7-0.4s0.3-0.3,0.4-0.5
		c0.1-0.2,0.1-0.4,0.1-0.7c0-1.3-0.8-1.9-2.3-1.9h-3.3v3.6H187.7z M187.7,297.5c0.4,0,0.7,0,1-0.1c0.3-0.1,0.6-0.2,0.9-0.3
		s0.4-0.4,0.6-0.6s0.2-0.6,0.2-1c0-0.7-0.2-1.1-0.7-1.5c-0.5-0.3-1.1-0.5-2-0.5h-3.3v4.1H187.7z"/>
	<path class="st4" d="M193.8,288.2v9.3h5.7v0.8h-6.7v-10.1H193.8z"/>
	<path class="st4" d="M201.5,288.2v10.1h-1v-10.1H201.5z"/>
	<path class="st4" d="M210.7,290.2c-0.2-0.3-0.4-0.6-0.7-0.8c-0.3-0.2-0.6-0.4-0.9-0.5c-0.3-0.1-0.7-0.2-1.1-0.2
		c-0.7,0-1.3,0.1-1.7,0.4c-0.5,0.3-0.9,0.6-1.2,1c-0.3,0.4-0.5,0.9-0.7,1.4c-0.1,0.5-0.2,1.1-0.2,1.6c0,0.5,0.1,1.1,0.2,1.6
		c0.1,0.5,0.4,1,0.7,1.4c0.3,0.4,0.7,0.8,1.2,1c0.5,0.3,1.1,0.4,1.7,0.4c0.5,0,0.9-0.1,1.3-0.3c0.4-0.2,0.7-0.4,1-0.7s0.5-0.6,0.7-1
		c0.2-0.4,0.3-0.8,0.3-1.3h1c-0.1,0.6-0.2,1.2-0.4,1.7c-0.2,0.5-0.5,0.9-0.9,1.3c-0.4,0.4-0.8,0.6-1.3,0.8c-0.5,0.2-1,0.3-1.6,0.3
		c-0.8,0-1.5-0.1-2.1-0.4s-1.1-0.7-1.5-1.2s-0.7-1-0.9-1.7c-0.2-0.6-0.3-1.3-0.3-2s0.1-1.4,0.3-2c0.2-0.6,0.5-1.2,0.9-1.7
		s0.9-0.9,1.5-1.2s1.3-0.4,2.1-0.4c0.5,0,1,0.1,1.4,0.2c0.5,0.1,0.9,0.4,1.3,0.6c0.4,0.3,0.7,0.6,0.9,1s0.4,0.9,0.5,1.4h-1
		C211,290.9,210.8,290.5,210.7,290.2z"/>
	<path class="st4" d="M218.6,288.2v10.1h-1v-10.1H218.6z"/>
	<path class="st4" d="M225.3,288.2c0.5,0,0.9,0.1,1.2,0.2s0.7,0.3,1,0.6s0.5,0.6,0.6,0.9c0.1,0.4,0.2,0.8,0.2,1.2s-0.1,0.9-0.2,1.2
		s-0.3,0.7-0.6,0.9s-0.6,0.4-1,0.6s-0.8,0.2-1.2,0.2h-3.5v4.3h-1v-10.1H225.3z M225.1,293.1c0.7,0,1.2-0.2,1.6-0.5s0.6-0.9,0.6-1.6
		s-0.2-1.2-0.6-1.6s-1-0.5-1.6-0.5h-3.3v4.2H225.1z"/>
</g>
<g>
	<path class="st0" d="M645.9,368.4H543.3c-1.1,0-2-0.9-2-2v-20.2c0-1.1,0.9-2,2-2h102.6c1.1,0,2,0.9,2,2v20.2
		C647.9,367.5,647,368.4,645.9,368.4z"/>
	<path class="st1" d="M645.9,368.4H543.3c-1.1,0-2-0.9-2-2v-20.2c0-1.1,0.9-2,2-2h102.6c1.1,0,2,0.9,2,2v20.2
		C647.9,367.5,647,368.4,645.9,368.4z"/>
	<path class="st2" d="M641.7,363.8h-43.4c-1.1,0-2-0.9-2-2v-10.9c0-1.1,0.9-2,2-2h43.4c1.1,0,2,0.9,2,2v10.9
		C643.7,362.9,642.8,363.8,641.7,363.8z"/>
	<circle class="st2" cx="549.2" cy="356.4" r="3.6"/>
	<circle class="st2" cx="559" cy="356.4" r="3.6"/>
</g>
<g>
	<path class="st0" d="M525.1,368.4H422.5c-1.1,0-2-0.9-2-2v-20.2c0-1.1,0.9-2,2-2h102.6c1.1,0,2,0.9,2,2v20.2
		C527.1,367.5,526.2,368.4,525.1,368.4z"/>
	<path class="st1" d="M525.1,368.4H422.5c-1.1,0-2-0.9-2-2v-20.2c0-1.1,0.9-2,2-2h102.6c1.1,0,2,0.9,2,2v20.2
		C527.1,367.5,526.2,368.4,525.1,368.4z"/>
	<path class="st2" d="M520.9,363.8h-43.4c-1.1,0-2-0.9-2-2v-10.9c0-1.1,0.9-2,2-2h43.4c1.1,0,2,0.9,2,2v10.9
		C522.9,362.9,522,363.8,520.9,363.8z"/>
	<circle class="st2" cx="428.4" cy="356.4" r="3.6"/>
	<circle class="st2" cx="438.2" cy="356.4" r="3.6"/>
</g>
<g>
	<path class="st3" d="M650.1,397.3H418.3c-6.6,0-12-5.4-12-12v-42.8c0-6.6,5.4-12,12-12h231.8c6.6,0,12,5.4,12,12v42.8
		C662.1,391.9,656.7,397.3,650.1,397.3z"/>
</g>
<g>
	<path class="st4" d="M482.7,384.7c0,0.4,0.1,0.7,0.2,1c0.1,0.3,0.3,0.5,0.5,0.6c0.2,0.2,0.5,0.3,0.8,0.4c0.3,0.1,0.6,0.1,1,0.1
		c0.4,0,0.7,0,1-0.1c0.3-0.1,0.5-0.2,0.6-0.3c0.2-0.1,0.3-0.3,0.4-0.5c0.1-0.2,0.1-0.4,0.1-0.5c0-0.4-0.1-0.6-0.3-0.8
		c-0.2-0.2-0.4-0.3-0.6-0.4c-0.3-0.1-0.7-0.2-1.2-0.4c-0.5-0.1-1-0.3-1.7-0.4c-0.4-0.1-0.8-0.3-1-0.4c-0.3-0.2-0.5-0.4-0.7-0.6
		c-0.2-0.2-0.3-0.5-0.3-0.7c-0.1-0.2-0.1-0.5-0.1-0.8c0-0.5,0.1-0.9,0.3-1.3c0.2-0.4,0.5-0.7,0.8-0.9c0.3-0.2,0.7-0.4,1.1-0.5
		c0.4-0.1,0.9-0.2,1.3-0.2c0.5,0,1,0.1,1.4,0.2c0.5,0.1,0.8,0.3,1.2,0.6c0.3,0.3,0.6,0.6,0.8,1c0.2,0.4,0.3,0.8,0.3,1.3h-1.7
		c0-0.6-0.3-1.1-0.6-1.3c-0.4-0.3-0.9-0.4-1.5-0.4c-0.2,0-0.4,0-0.6,0.1c-0.2,0-0.4,0.1-0.6,0.2c-0.2,0.1-0.3,0.2-0.4,0.4
		c-0.1,0.2-0.2,0.4-0.2,0.6c0,0.3,0.1,0.6,0.3,0.8c0.2,0.2,0.5,0.3,0.8,0.4c0,0,0.2,0,0.4,0.1c0.2,0.1,0.5,0.1,0.8,0.2
		s0.6,0.2,0.9,0.2c0.3,0.1,0.5,0.1,0.6,0.2c0.3,0.1,0.6,0.2,0.8,0.4c0.2,0.2,0.4,0.4,0.6,0.6c0.2,0.2,0.3,0.5,0.4,0.7
		c0.1,0.3,0.1,0.5,0.1,0.8c0,0.5-0.1,1-0.3,1.4c-0.2,0.4-0.5,0.7-0.9,0.9c-0.4,0.2-0.8,0.4-1.2,0.5c-0.5,0.1-0.9,0.2-1.4,0.2
		c-0.6,0-1.1-0.1-1.6-0.2c-0.5-0.1-0.9-0.3-1.3-0.6c-0.4-0.3-0.7-0.6-0.9-1.1c-0.2-0.4-0.3-1-0.3-1.6H482.7z"/>
	<path class="st4" d="M491.4,384.8c0,0.3,0,0.5,0.1,0.8c0.1,0.3,0.2,0.5,0.3,0.7c0.2,0.2,0.4,0.3,0.6,0.5c0.2,0.1,0.5,0.2,0.8,0.2
		c0.5,0,0.8-0.1,1.1-0.3c0.3-0.2,0.5-0.5,0.6-0.9h1.5c-0.1,0.4-0.2,0.7-0.4,1c-0.2,0.3-0.4,0.6-0.7,0.8c-0.3,0.2-0.6,0.4-0.9,0.5
		c-0.3,0.1-0.7,0.2-1.1,0.2c-0.6,0-1-0.1-1.5-0.3c-0.4-0.2-0.8-0.4-1.1-0.8c-0.3-0.3-0.5-0.7-0.7-1.2c-0.1-0.5-0.2-1-0.2-1.5
		c0-0.5,0.1-1,0.2-1.4c0.2-0.5,0.4-0.8,0.7-1.2c0.3-0.3,0.7-0.6,1.1-0.8c0.4-0.2,0.9-0.3,1.4-0.3c0.6,0,1.1,0.1,1.5,0.3
		s0.8,0.5,1.1,0.9c0.3,0.4,0.5,0.8,0.6,1.3c0.1,0.5,0.2,1,0.1,1.5H491.4z M495,383.8c0-0.2-0.1-0.5-0.2-0.7
		c-0.1-0.2-0.2-0.4-0.4-0.6c-0.2-0.2-0.3-0.3-0.5-0.4c-0.2-0.1-0.5-0.2-0.7-0.2c-0.3,0-0.5,0-0.7,0.1c-0.2,0.1-0.4,0.2-0.6,0.4
		c-0.2,0.2-0.3,0.4-0.4,0.6c-0.1,0.2-0.1,0.5-0.2,0.7H495z"/>
	<path class="st4" d="M502.5,383.2c-0.1-0.4-0.2-0.8-0.5-1c-0.3-0.2-0.6-0.3-1.1-0.3c-0.2,0-0.4,0-0.6,0.1c-0.2,0.1-0.4,0.2-0.6,0.4
		c-0.2,0.2-0.4,0.4-0.5,0.8s-0.2,0.8-0.2,1.3c0,0.3,0,0.6,0.1,0.9c0.1,0.3,0.2,0.6,0.3,0.8c0.1,0.2,0.3,0.4,0.6,0.6
		c0.2,0.1,0.5,0.2,0.9,0.2c0.5,0,0.8-0.1,1.1-0.4c0.3-0.3,0.5-0.7,0.6-1.2h1.6c-0.1,0.9-0.5,1.6-1,2.1c-0.6,0.5-1.3,0.7-2.2,0.7
		c-0.6,0-1-0.1-1.5-0.3c-0.4-0.2-0.8-0.4-1.1-0.8c-0.3-0.3-0.5-0.7-0.7-1.2c-0.1-0.4-0.2-0.9-0.2-1.4c0-0.5,0.1-1,0.2-1.5
		c0.1-0.5,0.4-0.9,0.7-1.2c0.3-0.3,0.7-0.6,1.1-0.8c0.4-0.2,0.9-0.3,1.5-0.3c0.4,0,0.8,0.1,1.2,0.2c0.4,0.1,0.7,0.3,1,0.5
		c0.3,0.2,0.5,0.5,0.7,0.8c0.2,0.3,0.3,0.7,0.3,1.1H502.5z"/>
	<path class="st4" d="M511.5,387.9H510v-1h0c-0.2,0.4-0.5,0.6-0.9,0.9c-0.4,0.2-0.8,0.3-1.2,0.3c-0.9,0-1.6-0.2-2-0.7
		c-0.4-0.5-0.6-1.2-0.6-2.1v-4.5h1.6v4.3c0,0.6,0.1,1.1,0.4,1.3c0.2,0.3,0.6,0.4,1,0.4c0.3,0,0.6,0,0.8-0.1s0.4-0.2,0.5-0.4
		c0.1-0.2,0.2-0.4,0.3-0.6c0.1-0.2,0.1-0.5,0.1-0.8v-4.1h1.6V387.9z"/>
	<path class="st4" d="M513.2,380.9h1.5v1.4h0c0-0.2,0.1-0.4,0.3-0.6s0.3-0.3,0.5-0.5c0.2-0.1,0.4-0.3,0.6-0.4
		c0.2-0.1,0.5-0.1,0.7-0.1c0.2,0,0.3,0,0.4,0c0.1,0,0.1,0,0.2,0v1.5c-0.1,0-0.2,0-0.3,0c-0.1,0-0.2,0-0.3,0c-0.3,0-0.5,0.1-0.7,0.2
		c-0.2,0.1-0.4,0.3-0.6,0.5c-0.2,0.2-0.3,0.5-0.4,0.8c-0.1,0.3-0.2,0.6-0.2,1v3.4h-1.6V380.9z"/>
	<path class="st4" d="M518,378.2h1.6v1.5H518V378.2z M518,380.9h1.6v7.1H518V380.9z"/>
	<path class="st4" d="M520.5,380.9h1.2v-2.1h1.6v2.1h1.4v1.2h-1.4v3.8c0,0.2,0,0.3,0,0.4c0,0.1,0,0.2,0.1,0.3c0,0.1,0.1,0.1,0.2,0.2
		c0.1,0,0.2,0.1,0.4,0.1c0.1,0,0.2,0,0.3,0c0.1,0,0.2,0,0.3,0v1.2c-0.2,0-0.3,0-0.5,0.1c-0.2,0-0.3,0-0.5,0c-0.4,0-0.7,0-1-0.1
		c-0.2-0.1-0.4-0.2-0.6-0.3c-0.1-0.1-0.2-0.3-0.3-0.6c0-0.2-0.1-0.5-0.1-0.8V382h-1.2V380.9z"/>
	<path class="st4" d="M525,380.9h1.7l1.8,5.3h0l1.8-5.3h1.6l-2.7,7.4c-0.1,0.3-0.3,0.6-0.4,0.9c-0.1,0.3-0.3,0.5-0.5,0.8
		c-0.2,0.2-0.4,0.4-0.7,0.5c-0.3,0.1-0.6,0.2-1,0.2c-0.4,0-0.7,0-1.1-0.1v-1.3c0.1,0,0.2,0,0.4,0.1c0.1,0,0.2,0,0.4,0
		c0.2,0,0.3,0,0.5-0.1c0.1,0,0.2-0.1,0.3-0.2c0.1-0.1,0.1-0.2,0.2-0.3c0.1-0.1,0.1-0.3,0.2-0.4l0.2-0.5L525,380.9z"/>
	<path class="st4" d="M545.4,387.9h-1.1l-0.3-1.1c-0.5,0.5-0.9,0.9-1.4,1.1c-0.5,0.2-1,0.3-1.6,0.3c-0.7,0-1.4-0.1-2-0.4
		c-0.6-0.3-1.1-0.6-1.5-1.1c-0.4-0.5-0.7-1-0.9-1.6c-0.2-0.6-0.3-1.3-0.3-2c0-0.7,0.1-1.3,0.3-2c0.2-0.6,0.5-1.2,0.9-1.6
		c0.4-0.5,0.9-0.8,1.5-1.1c0.6-0.3,1.2-0.4,2-0.4c0.5,0,1,0.1,1.5,0.2c0.5,0.1,0.9,0.4,1.3,0.6c0.4,0.3,0.7,0.6,0.9,1
		c0.2,0.4,0.4,0.9,0.5,1.4h-1.7c0-0.3-0.1-0.6-0.3-0.8c-0.1-0.2-0.3-0.4-0.6-0.6c-0.2-0.2-0.5-0.3-0.8-0.4c-0.3-0.1-0.6-0.1-0.9-0.1
		c-0.5,0-1,0.1-1.3,0.3c-0.4,0.2-0.7,0.5-0.9,0.8c-0.2,0.4-0.4,0.7-0.5,1.2c-0.1,0.4-0.2,0.9-0.2,1.4c0,0.5,0.1,0.9,0.2,1.4
		c0.1,0.4,0.3,0.8,0.5,1.2c0.2,0.4,0.5,0.6,0.9,0.8c0.4,0.2,0.8,0.3,1.3,0.3c0.4,0,0.8,0,1.2-0.2c0.3-0.1,0.6-0.3,0.9-0.5
		c0.2-0.2,0.4-0.5,0.5-0.9c0.1-0.3,0.2-0.7,0.2-1.1h-2.6v-1.3h4.1V387.9z"/>
	<path class="st4" d="M547,380.9h1.5v1.4h0c0-0.2,0.1-0.4,0.3-0.6s0.3-0.3,0.5-0.5c0.2-0.1,0.4-0.3,0.6-0.4c0.2-0.1,0.5-0.1,0.7-0.1
		c0.2,0,0.3,0,0.4,0c0.1,0,0.1,0,0.2,0v1.5c-0.1,0-0.2,0-0.3,0c-0.1,0-0.2,0-0.3,0c-0.3,0-0.5,0.1-0.7,0.2s-0.4,0.3-0.6,0.5
		c-0.2,0.2-0.3,0.5-0.4,0.8c-0.1,0.3-0.1,0.6-0.1,1v3.4H547V380.9z"/>
	<path class="st4" d="M554.8,388.1c-0.6,0-1.1-0.1-1.5-0.3c-0.4-0.2-0.8-0.4-1.1-0.8c-0.3-0.3-0.5-0.7-0.7-1.2
		c-0.2-0.5-0.2-1-0.2-1.5c0-0.5,0.1-1,0.2-1.5c0.2-0.5,0.4-0.8,0.7-1.2c0.3-0.3,0.7-0.6,1.1-0.8c0.4-0.2,0.9-0.3,1.5-0.3
		c0.6,0,1.1,0.1,1.5,0.3c0.4,0.2,0.8,0.4,1.1,0.8c0.3,0.3,0.5,0.7,0.7,1.2s0.2,1,0.2,1.5c0,0.5-0.1,1-0.2,1.5s-0.4,0.8-0.7,1.2
		c-0.3,0.3-0.7,0.6-1.1,0.8C555.9,388,555.4,388.1,554.8,388.1z M554.8,386.9c0.3,0,0.6-0.1,0.9-0.2c0.3-0.1,0.5-0.3,0.6-0.6
		c0.2-0.2,0.3-0.5,0.4-0.8c0.1-0.3,0.1-0.6,0.1-0.9c0-0.3,0-0.6-0.1-0.9c-0.1-0.3-0.2-0.6-0.4-0.8c-0.2-0.2-0.4-0.4-0.6-0.6
		c-0.3-0.1-0.6-0.2-0.9-0.2c-0.3,0-0.6,0.1-0.9,0.2c-0.3,0.1-0.5,0.3-0.6,0.6c-0.2,0.2-0.3,0.5-0.4,0.8c-0.1,0.3-0.1,0.6-0.1,0.9
		c0,0.3,0,0.6,0.1,0.9s0.2,0.6,0.4,0.8c0.2,0.2,0.4,0.4,0.6,0.6C554.2,386.8,554.5,386.9,554.8,386.9z"/>
	<path class="st4" d="M565.9,387.9h-1.5v-1h0c-0.2,0.4-0.5,0.6-0.9,0.9c-0.4,0.2-0.8,0.3-1.2,0.3c-0.9,0-1.6-0.2-2-0.7
		c-0.4-0.5-0.6-1.2-0.6-2.1v-4.5h1.6v4.3c0,0.6,0.1,1.1,0.4,1.3c0.2,0.3,0.6,0.4,1,0.4c0.3,0,0.6,0,0.8-0.1s0.4-0.2,0.5-0.4
		c0.1-0.2,0.2-0.4,0.3-0.6c0.1-0.2,0.1-0.5,0.1-0.8v-4.1h1.6V387.9z"/>
	<path class="st4" d="M567.6,380.9h1.5v1h0c0.2-0.4,0.5-0.7,0.9-0.9c0.4-0.2,0.8-0.3,1.3-0.3c0.6,0,1,0.1,1.5,0.3
		c0.4,0.2,0.8,0.5,1,0.8c0.3,0.3,0.5,0.7,0.6,1.2c0.1,0.5,0.2,0.9,0.2,1.5c0,0.5-0.1,0.9-0.2,1.4c-0.1,0.4-0.3,0.8-0.6,1.2
		c-0.3,0.3-0.6,0.6-0.9,0.8c-0.4,0.2-0.8,0.3-1.4,0.3c-0.2,0-0.5,0-0.7-0.1c-0.2,0-0.4-0.1-0.7-0.2c-0.2-0.1-0.4-0.2-0.6-0.3
		c-0.2-0.1-0.3-0.3-0.4-0.5h0v3.5h-1.6V380.9z M573,384.4c0-0.3,0-0.6-0.1-0.9c-0.1-0.3-0.2-0.6-0.4-0.8c-0.2-0.2-0.4-0.4-0.6-0.6
		c-0.2-0.1-0.5-0.2-0.8-0.2c-0.7,0-1.1,0.2-1.5,0.7s-0.5,1.1-0.5,1.8c0,0.4,0,0.7,0.1,1c0.1,0.3,0.2,0.6,0.4,0.8
		c0.2,0.2,0.4,0.4,0.6,0.5c0.2,0.1,0.5,0.2,0.8,0.2c0.4,0,0.7-0.1,0.9-0.2c0.2-0.1,0.4-0.3,0.6-0.6c0.2-0.2,0.3-0.5,0.3-0.8
		C573,385,573,384.7,573,384.4z"/>
	<path class="st4" d="M579.9,378.2h4.7c0.9,0,1.6,0.2,2.1,0.6c0.5,0.4,0.8,1,0.8,1.8c0,0.5-0.1,0.9-0.4,1.3c-0.2,0.4-0.6,0.6-1,0.8
		v0c0.6,0.1,1.1,0.4,1.4,0.9c0.3,0.4,0.5,1,0.5,1.7c0,0.4-0.1,0.7-0.2,1.1c-0.1,0.3-0.4,0.6-0.6,0.9c-0.3,0.2-0.7,0.4-1.1,0.6
		c-0.5,0.1-1,0.2-1.6,0.2h-4.5V378.2z M581.6,382.3h2.8c0.4,0,0.8-0.1,1-0.3c0.3-0.2,0.4-0.6,0.4-1c0-0.5-0.1-0.8-0.4-1
		c-0.2-0.2-0.6-0.3-1.1-0.3h-2.8V382.3z M581.6,386.5h3c0.5,0,0.9-0.1,1.2-0.4c0.3-0.3,0.4-0.6,0.4-1.1c0-0.5-0.1-0.9-0.4-1.1
		c-0.3-0.3-0.7-0.4-1.2-0.4h-3V386.5z"/>
</g>
<g>
	<g>
		<g>
			<path class="st2" d="M471.8,338.3c-5.2-2.5-8.6-5.6-10.6-9.9c-2-4.3-2.6-9.8-2-17.3l0.1-0.9h0.9c0,0,0,0,0.1,0
				c0.5,0,3.5-0.1,6.4-1.4c2.6-1.2,5.5-3,5.5-3s3,1.8,5.5,3c2.9,1.4,5.8,1.4,6.4,1.4c0,0,0.1,0,0.1,0h0.9l0.1,0.9
				c0.6,7.5,0,13-2,17.3c-2,4.3-5.4,7.4-10.6,9.9l-0.4,0.2L471.8,338.3z"/>
		</g>
	</g>
	<path class="st5" d="M472.2,338.4v-16.3H485c0.5-3.1,0.5-6.8,0.2-11.1l-0.1-0.9h-0.9c0,0,0,0-0.1,0c-0.5,0-3.5-0.1-6.4-1.4
		c-2.6-1.2-5.5-3-5.5-3v16.3h-12.8c0.4,2.4,1,4.4,1.8,6.2c2,4.3,5.4,7.4,10.6,9.9L472.2,338.4L472.2,338.4L472.2,338.4z"/>
	<path class="st5" d="M472.2,339.5l-0.8-0.4c-5.5-2.5-9-5.9-11.1-10.4c-2.1-4.4-2.7-10.1-2.1-17.8l0.2-1.8l1.8,0h0.1
		c0.3,0,3.2,0,6-1.3c2.5-1.2,5.5-2.9,5.5-2.9l0.5-0.3l0.5,0.3c0,0,3,1.8,5.5,2.9c2.8,1.3,5.7,1.3,6,1.3h0.9l0.9,0l0.2,1.7
		c0.6,7.7,0,13.4-2.1,17.8c-2.1,4.5-5.6,7.8-11.1,10.4L472.2,339.5z M472.1,337.4L472.1,337.4c5-2.3,8.2-5.3,10.1-9.4
		c1.9-4.1,2.5-9.4,1.9-16.8h-0.1c-0.6,0-3.7-0.1-6.8-1.5c-2-0.9-4.2-2.2-5.2-2.7c-1,0.5-3.1,1.8-5.2,2.7c-3.1,1.5-6.2,1.5-6.8,1.5
		h-0.1c-0.6,7.3,0,12.7,1.9,16.8C463.9,332,467.1,335,472.1,337.4z"/>
</g>
<g>
	<g>
		<g>
			<path class="st2" d="M594.2,338.3c-5.2-2.5-8.6-5.6-10.6-9.9c-2-4.3-2.6-9.8-2-17.3l0.1-0.9h0.9c0,0,0,0,0.1,0
				c0.5,0,3.5-0.1,6.4-1.4c2.6-1.2,5.5-3,5.5-3s3,1.8,5.5,3c2.9,1.4,5.8,1.4,6.4,1.4c0,0,0.1,0,0.1,0h0.9l0.1,0.9
				c0.6,7.5,0,13-2,17.3c-2,4.3-5.4,7.4-10.6,9.9l-0.4,0.2L594.2,338.3z"/>
		</g>
	</g>
	<path class="st5" d="M594.6,338.4v-16.3h12.8c0.5-3.1,0.5-6.8,0.2-11.1l-0.1-0.9h-0.9c0,0,0,0-0.1,0c-0.5,0-3.5-0.1-6.4-1.4
		c-2.6-1.2-5.5-3-5.5-3v16.3h-12.8c0.4,2.4,1,4.4,1.8,6.2c2,4.3,5.4,7.4,10.6,9.9L594.6,338.4L594.6,338.4L594.6,338.4z"/>
	<path class="st5" d="M594.7,339.5l-0.8-0.4c-5.5-2.5-9-5.9-11.1-10.4c-2.1-4.4-2.7-10.1-2.1-17.8l0.2-1.8l1.8,0h0.1
		c0.3,0,3.2,0,6-1.3c2.5-1.2,5.5-2.9,5.5-2.9l0.5-0.3l0.5,0.3c0,0,3,1.8,5.5,2.9c2.8,1.3,5.7,1.3,6,1.3h0.9l0.9,0l0.2,1.7
		c0.6,7.7,0,13.4-2.1,17.8c-2.1,4.5-5.6,7.8-11.1,10.4L594.7,339.5z M594.6,337.4L594.6,337.4c5-2.3,8.2-5.3,10.1-9.4
		c1.9-4.1,2.5-9.4,1.9-16.8h-0.1c-0.6,0-3.7-0.1-6.8-1.5c-2-0.9-4.2-2.2-5.2-2.7c-1,0.5-3.1,1.8-5.2,2.7c-3.1,1.5-6.2,1.5-6.8,1.5
		h-0.1c-0.6,7.3,0,12.7,1.9,16.8C586.4,332,589.6,335,594.6,337.4z"/>
</g>
<g>
	<path class="st4" d="M445.2,288.2c0.5,0,0.9,0.1,1.2,0.2s0.7,0.3,1,0.6s0.5,0.6,0.6,0.9c0.1,0.4,0.2,0.8,0.2,1.2s-0.1,0.9-0.2,1.2
		s-0.3,0.7-0.6,0.9s-0.6,0.4-1,0.6s-0.8,0.2-1.2,0.2h-3.5v4.3h-1v-10.1H445.2z M445,293.1c0.7,0,1.2-0.2,1.6-0.5s0.6-0.9,0.6-1.6
		s-0.2-1.2-0.6-1.6s-1-0.5-1.6-0.5h-3.3v4.2H445z"/>
	<path class="st4" d="M450.5,288.2v6.3c0,0.6,0.1,1.1,0.2,1.5c0.1,0.4,0.3,0.7,0.6,1s0.6,0.5,0.9,0.6c0.4,0.1,0.8,0.2,1.3,0.2
		c0.5,0,0.9-0.1,1.3-0.2c0.4-0.1,0.7-0.3,0.9-0.6s0.4-0.6,0.6-1s0.2-0.9,0.2-1.5v-6.3h1v6.5c0,0.5-0.1,1-0.2,1.5
		c-0.1,0.5-0.4,0.9-0.7,1.2c-0.3,0.4-0.7,0.6-1.2,0.8c-0.5,0.2-1.1,0.3-1.8,0.3c-0.7,0-1.3-0.1-1.8-0.3c-0.5-0.2-0.9-0.5-1.2-0.8
		c-0.3-0.3-0.5-0.8-0.7-1.2c-0.1-0.5-0.2-1-0.2-1.5v-6.5H450.5z"/>
	<path class="st4" d="M463.7,288.2c0.4,0,0.8,0,1.2,0.1c0.4,0.1,0.7,0.2,1,0.4s0.5,0.5,0.7,0.8c0.2,0.3,0.3,0.7,0.3,1.2
		c0,0.3,0,0.5-0.1,0.8c-0.1,0.3-0.2,0.5-0.4,0.7s-0.3,0.4-0.6,0.5c-0.2,0.1-0.5,0.2-0.7,0.3v0c0.7,0.1,1.2,0.4,1.6,0.8
		c0.4,0.5,0.6,1,0.6,1.7c0,0.2,0,0.3,0,0.5s-0.1,0.4-0.2,0.6s-0.2,0.4-0.4,0.6s-0.4,0.4-0.6,0.5c-0.3,0.2-0.6,0.3-1,0.4
		c-0.4,0.1-0.9,0.1-1.4,0.1h-4.3v-10.1H463.7z M463.7,292.6c0.4,0,0.7,0,1-0.1c0.3-0.1,0.5-0.2,0.7-0.4c0.2-0.2,0.3-0.3,0.4-0.5
		c0.1-0.2,0.1-0.4,0.1-0.7c0-1.3-0.8-1.9-2.3-1.9h-3.3v3.6H463.7z M463.7,297.5c0.4,0,0.7,0,1-0.1s0.6-0.2,0.9-0.3
		c0.2-0.2,0.4-0.4,0.6-0.6c0.1-0.3,0.2-0.6,0.2-1c0-0.7-0.2-1.1-0.7-1.5c-0.5-0.3-1.1-0.5-2-0.5h-3.3v4.1H463.7z"/>
	<path class="st4" d="M469.8,288.2v9.3h5.7v0.8h-6.7v-10.1H469.8z"/>
	<path class="st4" d="M477.5,288.2v10.1h-1v-10.1H477.5z"/>
	<path class="st4" d="M486.7,290.2c-0.2-0.3-0.4-0.6-0.7-0.8s-0.6-0.4-0.9-0.5c-0.3-0.1-0.7-0.2-1.1-0.2c-0.7,0-1.3,0.1-1.7,0.4
		s-0.9,0.6-1.2,1c-0.3,0.4-0.5,0.9-0.7,1.4c-0.1,0.5-0.2,1.1-0.2,1.6c0,0.5,0.1,1.1,0.2,1.6c0.1,0.5,0.4,1,0.7,1.4
		c0.3,0.4,0.7,0.8,1.2,1s1.1,0.4,1.7,0.4c0.5,0,0.9-0.1,1.3-0.3c0.4-0.2,0.7-0.4,1-0.7s0.5-0.6,0.7-1c0.2-0.4,0.3-0.8,0.3-1.3h1
		c-0.1,0.6-0.2,1.2-0.4,1.7c-0.2,0.5-0.5,0.9-0.9,1.3s-0.8,0.6-1.3,0.8c-0.5,0.2-1,0.3-1.6,0.3c-0.8,0-1.5-0.1-2.1-0.4
		s-1.1-0.7-1.5-1.2c-0.4-0.5-0.7-1-0.9-1.7c-0.2-0.6-0.3-1.3-0.3-2s0.1-1.4,0.3-2c0.2-0.6,0.5-1.2,0.9-1.7c0.4-0.5,0.9-0.9,1.5-1.2
		s1.3-0.4,2.1-0.4c0.5,0,1,0.1,1.4,0.2c0.5,0.1,0.9,0.4,1.3,0.6s0.7,0.6,0.9,1c0.3,0.4,0.4,0.9,0.5,1.4h-1
		C487,290.9,486.9,290.5,486.7,290.2z"/>
	<path class="st4" d="M494.7,288.2v10.1h-1v-10.1H494.7z"/>
	<path class="st4" d="M501.3,288.2c0.5,0,0.9,0.1,1.2,0.2s0.7,0.3,1,0.6s0.5,0.6,0.6,0.9c0.1,0.4,0.2,0.8,0.2,1.2s-0.1,0.9-0.2,1.2
		s-0.3,0.7-0.6,0.9s-0.6,0.4-1,0.6s-0.8,0.2-1.2,0.2h-3.5v4.3h-1v-10.1H501.3z M501.1,293.1c0.7,0,1.2-0.2,1.6-0.5s0.6-0.9,0.6-1.6
		s-0.2-1.2-0.6-1.6s-1-0.5-1.6-0.5h-3.3v4.2H501.1z"/>
</g>
<g>
	<path class="st4" d="M567.6,288.2c0.5,0,0.9,0.1,1.2,0.2s0.7,0.3,1,0.6s0.5,0.6,0.6,0.9c0.1,0.4,0.2,0.8,0.2,1.2s-0.1,0.9-0.2,1.2
		s-0.3,0.7-0.6,0.9s-0.6,0.4-1,0.6s-0.8,0.2-1.2,0.2h-3.5v4.3h-1v-10.1H567.6z M567.4,293.1c0.7,0,1.2-0.2,1.6-0.5s0.6-0.9,0.6-1.6
		s-0.2-1.2-0.6-1.6s-1-0.5-1.6-0.5h-3.3v4.2H567.4z"/>
	<path class="st4" d="M573,288.2v6.3c0,0.6,0.1,1.1,0.2,1.5c0.1,0.4,0.3,0.7,0.6,1s0.6,0.5,0.9,0.6c0.4,0.1,0.8,0.2,1.3,0.2
		c0.5,0,0.9-0.1,1.3-0.2c0.4-0.1,0.7-0.3,0.9-0.6s0.4-0.6,0.6-1s0.2-0.9,0.2-1.5v-6.3h1v6.5c0,0.5-0.1,1-0.2,1.5
		c-0.1,0.5-0.4,0.9-0.7,1.2c-0.3,0.4-0.7,0.6-1.2,0.8c-0.5,0.2-1.1,0.3-1.8,0.3c-0.7,0-1.3-0.1-1.8-0.3c-0.5-0.2-0.9-0.5-1.2-0.8
		c-0.3-0.3-0.5-0.8-0.7-1.2c-0.1-0.5-0.2-1-0.2-1.5v-6.5H573z"/>
	<path class="st4" d="M586.1,288.2c0.4,0,0.8,0,1.2,0.1c0.4,0.1,0.7,0.2,1,0.4s0.5,0.5,0.7,0.8c0.2,0.3,0.3,0.7,0.3,1.2
		c0,0.3,0,0.5-0.1,0.8c-0.1,0.3-0.2,0.5-0.4,0.7s-0.3,0.4-0.6,0.5c-0.2,0.1-0.5,0.2-0.7,0.3v0c0.7,0.1,1.2,0.4,1.6,0.8
		c0.4,0.5,0.6,1,0.6,1.7c0,0.2,0,0.3,0,0.5s-0.1,0.4-0.2,0.6s-0.2,0.4-0.4,0.6s-0.4,0.4-0.6,0.5c-0.3,0.2-0.6,0.3-1,0.4
		c-0.4,0.1-0.9,0.1-1.4,0.1h-4.3v-10.1H586.1z M586.1,292.6c0.4,0,0.7,0,1-0.1c0.3-0.1,0.5-0.2,0.7-0.4c0.2-0.2,0.3-0.3,0.4-0.5
		c0.1-0.2,0.1-0.4,0.1-0.7c0-1.3-0.8-1.9-2.3-1.9h-3.3v3.6H586.1z M586.1,297.5c0.4,0,0.7,0,1-0.1s0.6-0.2,0.9-0.3
		c0.2-0.2,0.4-0.4,0.6-0.6c0.1-0.3,0.2-0.6,0.2-1c0-0.7-0.2-1.1-0.7-1.5c-0.5-0.3-1.1-0.5-2-0.5h-3.3v4.1H586.1z"/>
	<path class="st4" d="M592.3,288.2v9.3h5.7v0.8h-6.7v-10.1H592.3z"/>
	<path class="st4" d="M600,288.2v10.1h-1v-10.1H600z"/>
	<path class="st4" d="M609.1,290.2c-0.2-0.3-0.4-0.6-0.7-0.8s-0.6-0.4-0.9-0.5c-0.3-0.1-0.7-0.2-1.1-0.2c-0.7,0-1.3,0.1-1.7,0.4
		s-0.9,0.6-1.2,1c-0.3,0.4-0.5,0.9-0.7,1.4c-0.1,0.5-0.2,1.1-0.2,1.6c0,0.5,0.1,1.1,0.2,1.6c0.1,0.5,0.4,1,0.7,1.4
		c0.3,0.4,0.7,0.8,1.2,1s1.1,0.4,1.7,0.4c0.5,0,0.9-0.1,1.3-0.3c0.4-0.2,0.7-0.4,1-0.7s0.5-0.6,0.7-1c0.2-0.4,0.3-0.8,0.3-1.3h1
		c-0.1,0.6-0.2,1.2-0.4,1.7c-0.2,0.5-0.5,0.9-0.9,1.3s-0.8,0.6-1.3,0.8c-0.5,0.2-1,0.3-1.6,0.3c-0.8,0-1.5-0.1-2.1-0.4
		s-1.1-0.7-1.5-1.2c-0.4-0.5-0.7-1-0.9-1.7c-0.2-0.6-0.3-1.3-0.3-2s0.1-1.4,0.3-2c0.2-0.6,0.5-1.2,0.9-1.7c0.4-0.5,0.9-0.9,1.5-1.2
		s1.3-0.4,2.1-0.4c0.5,0,1,0.1,1.4,0.2c0.5,0.1,0.9,0.4,1.3,0.6s0.7,0.6,0.9,1c0.3,0.4,0.4,0.9,0.5,1.4h-1
		C609.4,290.9,609.3,290.5,609.1,290.2z"/>
	<path class="st4" d="M617.1,288.2v10.1h-1v-10.1H617.1z"/>
	<path class="st4" d="M623.7,288.2c0.5,0,0.9,0.1,1.2,0.2s0.7,0.3,1,0.6s0.5,0.6,0.6,0.9c0.1,0.4,0.2,0.8,0.2,1.2s-0.1,0.9-0.2,1.2
		s-0.3,0.7-0.6,0.9s-0.6,0.4-1,0.6s-0.8,0.2-1.2,0.2h-3.5v4.3h-1v-10.1H623.7z M623.5,293.1c0.7,0,1.2-0.2,1.6-0.5s0.6-0.9,0.6-1.6
		s-0.2-1.2-0.6-1.6s-1-0.5-1.6-0.5h-3.3v4.2H623.5z"/>
</g>
<g>
	<circle class="st2" cx="470.5" cy="272.7" r="8.6"/>
	<path class="st6" d="M470.5,265.4c-4,0-7.2,3.2-7.2,7.2s3.2,7.2,7.2,7.2c4,0,7.2-3.2,7.2-7.2S474.5,265.4,470.5,265.4z
		 M465.5,272.7c0-2.8,2.3-5.1,5.1-5.1c1,0,1.9,0.3,2.7,0.8l-7,7C465.8,274.6,465.5,273.7,465.5,272.7z M470.5,277.7
		c-1,0-1.9-0.3-2.7-0.8l7-7c0.5,0.8,0.8,1.7,0.8,2.7C475.6,275.5,473.3,277.7,470.5,277.7z"/>
</g>
<g>
	<circle class="st2" cx="499.2" cy="231.1" r="8.6"/>
	<path class="st6" d="M499.2,223.9c-4,0-7.2,3.2-7.2,7.2s3.2,7.2,7.2,7.2c4,0,7.2-3.2,7.2-7.2S503.2,223.9,499.2,223.9z
		 M494.1,231.1c0-2.8,2.3-5.1,5.1-5.1c1,0,1.9,0.3,2.7,0.8l-7,7C494.4,233.1,494.1,232.1,494.1,231.1z M499.2,236.2
		c-1,0-1.9-0.3-2.7-0.8l7-7c0.5,0.8,0.8,1.7,0.8,2.7C504.2,233.9,502,236.2,499.2,236.2z"/>
</g>
<g>
	<circle class="st2" cx="620" cy="231.1" r="8.6"/>
	<path class="st6" d="M620,223.9c-4,0-7.2,3.2-7.2,7.2s3.2,7.2,7.2,7.2c4,0,7.2-3.2,7.2-7.2S624,223.9,620,223.9z M614.9,231.1
		c0-2.8,2.3-5.1,5.1-5.1c1,0,1.9,0.3,2.7,0.8l-7,7C615.2,233.1,614.9,232.1,614.9,231.1z M620,236.2c-1,0-1.9-0.3-2.7-0.8l7-7
		c0.5,0.8,0.8,1.7,0.8,2.7C625,233.9,622.8,236.2,620,236.2z"/>
</g>
<g>
	<circle class="st2" cx="593" cy="272.7" r="8.6"/>
	<path class="st6" d="M593,265.4c-4,0-7.2,3.2-7.2,7.2s3.2,7.2,7.2,7.2c4,0,7.2-3.2,7.2-7.2S597,265.4,593,265.4z M587.9,272.7
		c0-2.8,2.3-5.1,5.1-5.1c1,0,1.9,0.3,2.7,0.8l-7,7C588.2,274.6,587.9,273.7,587.9,272.7z M593,277.7c-1,0-1.9-0.3-2.7-0.8l7-7
		c0.5,0.8,0.8,1.7,0.8,2.7C598,275.5,595.8,277.7,593,277.7z"/>
</g>
<g>
	<g>
		<circle class="st7" cx="196.1" cy="272.7" r="8.6"/>
	</g>
	<path class="st2" d="M195.5,278.6c-0.4,0-0.7-0.2-0.9-0.6l-2.9-4.7c-0.3-0.6-0.2-1.3,0.4-1.6c0.6-0.3,1.3-0.2,1.6,0.4l1.8,2.9
		l3.1-6.1c0.3-0.6,1-0.8,1.6-0.5c0.6,0.3,0.8,1,0.5,1.6l-4,8c-0.2,0.4-0.6,0.6-1,0.6C195.6,278.6,195.5,278.6,195.5,278.6z"/>
</g>
<g>
	<g>
		<circle class="st7" cx="73.7" cy="272.7" r="8.6"/>
	</g>
	<path class="st2" d="M73,278.6c-0.4,0-0.7-0.2-0.9-0.6l-2.9-4.7c-0.3-0.6-0.2-1.3,0.4-1.6c0.6-0.3,1.3-0.2,1.6,0.4L73,275l3.1-6.1
		c0.3-0.6,1-0.8,1.6-0.5c0.6,0.3,0.8,1,0.5,1.6l-4,8c-0.2,0.4-0.6,0.6-1,0.6C73.1,278.6,73.1,278.6,73,278.6z"/>
</g>
<g>
	<g>
		<circle class="st7" cx="94.9" cy="230.3" r="8.6"/>
	</g>
	<path class="st2" d="M94.2,236.3c-0.4,0-0.7-0.2-0.9-0.6l-2.9-4.7c-0.3-0.6-0.2-1.3,0.4-1.6c0.6-0.3,1.3-0.2,1.6,0.4l1.8,2.9
		l3.1-6.1c0.3-0.6,1-0.8,1.6-0.5c0.6,0.3,0.8,1,0.5,1.6l-4,8c-0.2,0.4-0.6,0.6-1,0.6C94.3,236.3,94.3,236.3,94.2,236.3z"/>
</g>
<g>
	<g>
		<circle class="st7" cx="221.5" cy="230.3" r="8.6"/>
	</g>
	<path class="st2" d="M220.9,236.3c-0.4,0-0.7-0.2-0.9-0.6l-2.9-4.7c-0.3-0.6-0.2-1.3,0.4-1.6c0.6-0.3,1.3-0.2,1.6,0.4l1.8,2.9
		l3.1-6.1c0.3-0.6,1-0.8,1.6-0.5c0.6,0.3,0.8,1,0.5,1.6l-4,8c-0.2,0.4-0.6,0.6-1,0.6C221,236.3,220.9,236.3,220.9,236.3z"/>
</g>
<g>
	<g>
		<g>
			<rect x="590.8" y="203.1" class="st8" width="4.3" height="53.6"/>
		</g>
		<g>
			<path class="st9" d="M593,203.1"/>
		</g>
		<g>
			<path class="st9" d="M545.8,151.7"/>
		</g>
		<g>
			<path class="st8" d="M595.1,203.1h-4.3v-35.8c0-7.4-6.1-13.5-13.5-13.5H349c-9.8,0-17.8-8-17.8-17.8v-25.4h4.3v25.4
				c0,7.4,6.1,13.5,13.5,13.5h228.4c9.8,0,17.8,8,17.8,17.8V203.1z"/>
		</g>
		<g>
			<path class="st9" d="M470.5,206.1"/>
		</g>
		<g>
			<path class="st9" d="M434.5,177.7"/>
		</g>
		<g>
			<path class="st8" d="M434.5,179.9H349c-9.8,0-17.8-8-17.8-17.8v-25.4h4.3v25.4c0,7.4,6.1,13.5,13.5,13.5h85.5V179.9z"/>
		</g>
		<g>
			<path class="st8" d="M472.7,257.9h-4.3v-64.5c0-7.4-6.1-13.5-13.5-13.5h-20.4v-4.3h20.4c9.8,0,17.8,8,17.8,17.8V257.9z"/>
		</g>
	</g>
	<polygon class="st8" points="470.5,256.8 466.6,252.8 464.7,254.7 470.5,260.5 476.4,254.7 474.5,252.8 	"/>
	<polygon class="st8" points="593,256.8 589,252.8 587.1,254.7 593,260.5 598.8,254.7 596.9,252.8 	"/>
</g>
<g>
	<g>
		<g>
			<rect x="71.6" y="203.1" class="st7" width="4.3" height="54.5"/>
		</g>
		<g>
			<path class="st10" d="M73.7,203.1"/>
		</g>
		<g>
			<path class="st10" d="M120.8,151.7"/>
		</g>
		<g>
			<path class="st7" d="M75.8,203.1h-4.3v-35.8c0-9.8,8-17.8,17.8-17.8h228.4c7.4,0,13.5-6.1,13.5-13.5v-25.4h4.3v25.4
				c0,9.8-8,17.8-17.8,17.8H89.3c-7.4,0-13.5,6.1-13.5,13.5V203.1z"/>
		</g>
		<g>
			<path class="st10" d="M196.1,206.1"/>
		</g>
		<g>
			<path class="st10" d="M232.2,177.7"/>
		</g>
		<g>
			<path class="st7" d="M317.7,179.9h-85.5v-4.3h85.5c7.4,0,13.5-6.1,13.5-13.5v-25.4h4.3v25.4C335.5,171.9,327.5,179.9,317.7,179.9
				z"/>
		</g>
		<g>
			<path class="st7" d="M198.3,258.2H194v-64.8c0-9.8,8-17.8,17.8-17.8h20.4v4.3h-20.4c-7.4,0-13.5,6.1-13.5,13.5V258.2z"/>
		</g>
	</g>
	<polygon class="st7" points="73.7,256.8 69.7,252.8 67.9,254.7 73.7,260.5 79.5,254.7 77.7,252.8 	"/>
	<polygon class="st7" points="196.1,256.8 192.2,252.8 190.3,254.7 196.1,260.5 202,254.7 200.1,252.8 	"/>
</g>
<g>
	<g>
		<rect x="269.8" y="355.4" class="st7" width="107.1" height="4.3"/>
	</g>
	<g>
		<g>
			<circle class="st7" cx="391.5" cy="357.5" r="8.6"/>
		</g>
		<path class="st2" d="M390.8,363.4c-0.4,0-0.7-0.2-0.9-0.6l-2.9-4.7c-0.3-0.6-0.2-1.3,0.4-1.6c0.6-0.3,1.3-0.2,1.6,0.4l1.8,2.9
			l3.1-6.1c0.3-0.6,1-0.8,1.6-0.5c0.6,0.3,0.8,1,0.5,1.6l-4,8c-0.2,0.4-0.6,0.6-1,0.6C390.9,363.5,390.9,363.4,390.8,363.4z"/>
	</g>
	<polygon class="st7" points="376.4,357.5 372.4,361.5 374.3,363.3 380.1,357.5 374.3,351.7 372.4,353.5 	"/>
	<g>
		<g>
			<rect x="293" y="373.3" class="st7" width="107.1" height="4.3"/>
		</g>
		<g>
			<g>
				<circle class="st7" cx="278.4" cy="375.4" r="8.6"/>
			</g>
			<path class="st2" d="M277.8,381.3c-0.4,0-0.7-0.2-0.9-0.6l-2.9-4.7c-0.3-0.6-0.2-1.3,0.4-1.6c0.6-0.3,1.3-0.2,1.6,0.4l1.8,2.9
				l3.1-6.1c0.3-0.6,1-0.8,1.6-0.5c0.6,0.3,0.8,1,0.5,1.6l-4,8c-0.2,0.4-0.6,0.6-1,0.6C277.8,381.4,277.8,381.3,277.8,381.3z"/>
		</g>
		<polygon class="st7" points="293.5,375.4 297.5,371.4 295.6,369.6 289.8,375.4 295.6,381.2 297.5,379.4 		"/>
	</g>
</g>
<g>
	<rect x="617.9" y="245.2" class="st8" width="4.3" height="33.8"/>
</g>
<polygon class="st8" points="620,245.7 624,249.7 625.8,247.9 620,242 614.2,247.9 616,249.7 "/>
<g>
	<rect x="497" y="245.2" class="st8" width="4.3" height="33.8"/>
</g>
<polygon class="st8" points="499.2,245.7 503.1,249.7 505,247.9 499.2,242 493.3,247.9 495.2,249.7 "/>
<g>
	<rect x="219.4" y="245.2" class="st7" width="4.3" height="33.8"/>
</g>
<polygon class="st7" points="221.5,245.7 225.5,249.7 227.4,247.9 221.5,242 215.7,247.9 217.6,249.7 "/>
<g>
	<rect x="92.8" y="245.2" class="st7" width="4.3" height="33.8"/>
</g>
<polygon class="st7" points="94.9,245.7 98.9,249.7 100.7,247.9 94.9,242 89.1,247.9 90.9,249.7 "/>
<g>
	<path class="st2" d="M395.8,58c-2.4-16.7-16.8-29.6-34.3-29.6c-4.5,0-8.9,0.9-12.8,2.5c-6.6-12.8-19.9-21.5-35.2-21.5
		c-21.9,0-39.6,17.7-39.6,39.6c0,2.8,0.3,5.5,0.9,8.2c-13.8,2.3-24.3,14.4-24.3,28.7v0c0,16,13.1,29.1,29.1,29.1h107.5
		c16,0,29.1-13.1,29.1-29.1v0C416.2,72.8,407.6,61.7,395.8,58z"/>
	<path class="st5" d="M391.3,58.3c-2.3-15.5-15.6-27.5-31.8-27.5c-4.2,0-8.2,0.8-11.9,2.3c-6.1-11.9-18.4-20-32.7-20
		c-20.3,0-36.7,16.4-36.7,36.7c0,2.6,0.3,5.1,0.8,7.6c-12.8,2.2-22.6,13.3-22.6,26.7v0c0,14.9,12.2,27.1,27.1,27.1h99.8
		c14.9,0,27.1-12.2,27.1-27.1v0C410.3,72,402.3,61.8,391.3,58.3z"/>
	<g>
		<path class="st2" d="M299,69.1h2.5v14.3H299V69.1z"/>
		<path class="st2" d="M304.3,73h2.2v1.5l0,0c0.3-0.6,0.8-1,1.4-1.4c0.6-0.3,1.2-0.5,1.9-0.5c1.1,0,2,0.3,2.7,0.9s1,1.5,1,2.6v7.1
			h-2.3v-6.5c0-0.8-0.2-1.4-0.5-1.8c-0.3-0.4-0.8-0.6-1.5-0.6c-0.4,0-0.7,0.1-1,0.2s-0.6,0.3-0.8,0.6c-0.2,0.2-0.4,0.5-0.5,0.9
			c-0.1,0.3-0.2,0.7-0.2,1.1v6.1h-2.3V73z"/>
		<path class="st2" d="M314.7,73h1.7v-3.1h2.3V73h2.1v1.7h-2.1v5.5c0,0.2,0,0.4,0,0.6c0,0.2,0.1,0.3,0.1,0.4
			c0.1,0.1,0.2,0.2,0.3,0.3c0.1,0.1,0.3,0.1,0.6,0.1c0.2,0,0.3,0,0.5,0c0.2,0,0.3,0,0.5-0.1v1.8c-0.3,0-0.5,0.1-0.7,0.1
			s-0.5,0-0.7,0c-0.6,0-1.1-0.1-1.5-0.2c-0.4-0.1-0.7-0.3-0.9-0.5c-0.2-0.2-0.3-0.5-0.4-0.8c-0.1-0.3-0.1-0.7-0.1-1.1v-6.1h-1.7V73z
			"/>
		<path class="st2" d="M324.2,78.8c0,0.4,0.1,0.8,0.2,1.2c0.1,0.4,0.3,0.7,0.5,1c0.2,0.3,0.5,0.5,0.9,0.7c0.3,0.2,0.8,0.3,1.2,0.3
			c0.7,0,1.2-0.1,1.6-0.4c0.4-0.3,0.7-0.7,0.9-1.3h2.2c-0.1,0.6-0.3,1.1-0.6,1.5c-0.3,0.4-0.6,0.8-1.1,1.1s-0.9,0.5-1.4,0.7
			c-0.5,0.2-1.1,0.2-1.6,0.2c-0.8,0-1.5-0.1-2.2-0.4c-0.6-0.3-1.2-0.6-1.6-1.1s-0.8-1.1-1-1.7c-0.2-0.7-0.3-1.4-0.3-2.2
			c0-0.7,0.1-1.4,0.4-2.1c0.2-0.7,0.6-1.2,1-1.7c0.4-0.5,1-0.9,1.6-1.2c0.6-0.3,1.3-0.4,2.1-0.4c0.8,0,1.5,0.2,2.2,0.5
			c0.6,0.3,1.2,0.8,1.6,1.4c0.4,0.6,0.7,1.2,0.9,1.9c0.2,0.7,0.2,1.5,0.2,2.3H324.2z M329.6,77.3c0-0.4-0.1-0.7-0.2-1
			c-0.1-0.3-0.3-0.6-0.5-0.9c-0.2-0.2-0.5-0.4-0.8-0.6c-0.3-0.2-0.7-0.2-1.1-0.2c-0.4,0-0.8,0.1-1.1,0.2s-0.6,0.3-0.8,0.6
			c-0.2,0.2-0.4,0.5-0.6,0.9c-0.1,0.3-0.2,0.7-0.2,1.1H329.6z"/>
		<path class="st2" d="M333.6,73h2.1v2h0c0.1-0.3,0.2-0.6,0.4-0.8c0.2-0.3,0.4-0.5,0.7-0.7c0.3-0.2,0.6-0.4,0.9-0.5s0.7-0.2,1-0.2
			c0.3,0,0.5,0,0.6,0c0.1,0,0.2,0,0.3,0V75c-0.2,0-0.3-0.1-0.5-0.1s-0.3,0-0.5,0c-0.4,0-0.8,0.1-1.1,0.2c-0.3,0.2-0.6,0.4-0.9,0.7
			c-0.3,0.3-0.5,0.7-0.6,1.1c-0.1,0.4-0.2,0.9-0.2,1.5v4.9h-2.3V73z"/>
		<path class="st2" d="M341,73h2.2v1.5l0,0c0.3-0.6,0.8-1,1.4-1.4s1.2-0.5,1.9-0.5c1.1,0,2,0.3,2.7,0.9s1,1.5,1,2.6v7.1h-2.3v-6.5
			c0-0.8-0.2-1.4-0.5-1.8c-0.3-0.4-0.8-0.6-1.5-0.6c-0.4,0-0.7,0.1-1,0.2s-0.6,0.3-0.8,0.6c-0.2,0.2-0.4,0.5-0.5,0.9
			c-0.1,0.3-0.2,0.7-0.2,1.1v6.1H341V73z"/>
		<path class="st2" d="M354.3,78.8c0,0.4,0.1,0.8,0.2,1.2c0.1,0.4,0.3,0.7,0.5,1c0.2,0.3,0.5,0.5,0.9,0.7c0.3,0.2,0.8,0.3,1.2,0.3
			c0.7,0,1.2-0.1,1.6-0.4c0.4-0.3,0.7-0.7,0.9-1.3h2.2c-0.1,0.6-0.3,1.1-0.6,1.5c-0.3,0.4-0.6,0.8-1.1,1.1c-0.4,0.3-0.9,0.5-1.4,0.7
			c-0.5,0.2-1.1,0.2-1.6,0.2c-0.8,0-1.5-0.1-2.2-0.4c-0.6-0.3-1.2-0.6-1.6-1.1c-0.4-0.5-0.8-1.1-1-1.7c-0.2-0.7-0.3-1.4-0.3-2.2
			c0-0.7,0.1-1.4,0.4-2.1c0.2-0.7,0.6-1.2,1-1.7c0.4-0.5,1-0.9,1.6-1.2c0.6-0.3,1.3-0.4,2.1-0.4c0.8,0,1.5,0.2,2.2,0.5
			c0.6,0.3,1.2,0.8,1.6,1.4c0.4,0.6,0.7,1.2,0.9,1.9c0.2,0.7,0.2,1.5,0.2,2.3H354.3z M359.7,77.3c0-0.4-0.1-0.7-0.2-1
			c-0.1-0.3-0.3-0.6-0.5-0.9s-0.5-0.4-0.8-0.6c-0.3-0.2-0.7-0.2-1.1-0.2c-0.4,0-0.8,0.1-1.1,0.2c-0.3,0.1-0.6,0.3-0.8,0.6
			c-0.2,0.2-0.4,0.5-0.6,0.9s-0.2,0.7-0.2,1.1H359.7z"/>
		<path class="st2" d="M362.7,73h1.7v-3.1h2.3V73h2.1v1.7h-2.1v5.5c0,0.2,0,0.4,0,0.6c0,0.2,0.1,0.3,0.1,0.4
			c0.1,0.1,0.2,0.2,0.3,0.3c0.1,0.1,0.3,0.1,0.6,0.1c0.2,0,0.3,0,0.5,0c0.2,0,0.3,0,0.5-0.1v1.8c-0.3,0-0.5,0.1-0.7,0.1
			c-0.2,0-0.5,0-0.7,0c-0.6,0-1.1-0.1-1.5-0.2c-0.4-0.1-0.7-0.3-0.9-0.5c-0.2-0.2-0.3-0.5-0.4-0.8c-0.1-0.3-0.1-0.7-0.1-1.1v-6.1
			h-1.7V73z"/>
	</g>
</g>
</svg>
