<svg xmlns="http://www.w3.org/2000/svg" xmlns:xlink="http://www.w3.org/1999/xlink" width="580" height="239.3" viewBox="0 0 580 239.3"><path opacity=".1" fill="#ccc" d="M0 0h580v239.3H0z"/><path fill="none" stroke="#000" stroke-miterlimit="10" d="M530.8 207.8H41.3V21.3"/><defs><path id="a" d="M530.8-28.7l-489.5 50v186.5h489.5z"/></defs><clipPath id="b"><use xlink:href="#a" overflow="visible"/></clipPath><path clip-path="url(#b)" fill="none" stroke="#000" stroke-miterlimit="10" d="M11.8-49.7h580v277h-580zM11.8-49.7h580v277h-580z"/><path opacity=".3" clip-path="url(#b)" fill="#85B3ED" stroke="#fff" stroke-width="3" stroke-miterlimit="10" d="M-2.4 119.3c74.9-3 97.1 13.7 124.6 15.7s47.6-90.6 67.1-90.6 29.5 147.4 82 147.4 136.8-104 193.3-117.5 112.8 3 112.8 3v162.5H1.8l-4.2-120.5z"/><g clip-path="url(#b)"><path d="M341.3 148.4c-.3-.1-.6-.2-.9-.1-.3 0-.6.1-.9.2s-.5.2-.8.4c-.4.3-.8.7-1 1.2s-.3.9-.3 1.3.1.9.3 1.3c.2.4.4.8.7 1.2.3.4.6.7 1 1 .4.3.8.5 1.2.6.4.1.9.1 1.3.1.5-.1.9-.3 1.4-.6.3-.2.6-.5.7-.8.2-.3.3-.6.3-1 0-.3 0-.7-.1-1-.1-.3-.2-.7-.4-1l.6-.5c.3.5.5.9.6 1.4.1.5.1.9.1 1.3-.1.4-.2.8-.4 1.2-.2.4-.5.7-.9 1-.5.4-1.1.7-1.6.8-.6.1-1.1.1-1.6 0s-1-.3-1.5-.7c-.5-.3-.9-.7-1.2-1.2-.4-.5-.6-1-.8-1.5s-.3-1.1-.3-1.6.1-1 .4-1.6c.3-.5.6-1 1.2-1.4.3-.3.7-.4 1.1-.6s.8-.2 1.2-.2c.4 0 .8.1 1.2.2.4.1.7.4 1 .7l-.6.5c-.5-.3-.8-.5-1-.6zM342.6 145.1l5.3 6.7-.6.5-5.3-6.7.6-.5zM344.4 143.8l.8.9-.6.5-.8-.9.6-.5zm1.4 1.8l3.8 4.9-.6.5-3.8-4.9.6-.5zM350 147.6c.2.2.5.3.8.4.3.1.6.1.9.1.3 0 .6-.2.9-.4.4-.3.7-.7.7-1.1.1-.4 0-.9-.2-1.3l.6-.5c.3.6.4 1.3.3 1.8-.1.6-.4 1.1-1.1 1.6-.4.3-.8.5-1.1.6-.4.1-.8.1-1.1 0s-.7-.3-1-.5c-.3-.2-.6-.5-.9-.9-.3-.3-.5-.7-.6-1s-.2-.8-.3-1.1c0-.4.1-.8.2-1.1.2-.4.4-.7.8-1 .4-.3.8-.5 1.2-.6.4-.1.8 0 1.2.1.4.1.7.3 1.1.6s.6.6.9.9l-3.7 3c-.1.1.1.3.4.4zm1.5-4.1c-.2-.1-.5-.3-.7-.3-.3-.1-.5-.1-.8 0-.3.1-.5.2-.8.4-.2.2-.4.4-.5.7-.1.2-.2.5-.2.8s0 .5.1.8.2.5.4.8l3.1-2.5c-.2-.4-.4-.6-.6-.7zM352.4 140.4l.7.8c-.1-.4-.1-.8 0-1.2.1-.4.4-.8.7-1 .3-.3.7-.5 1-.6.3-.1.6-.1.8-.1.3 0 .5.2.8.4.2.2.5.4.7.7l2.5 3.1-.6.5-2.4-3c-.2-.2-.3-.4-.5-.5l-.6-.3c-.2-.1-.4-.1-.6 0-.2.1-.4.2-.7.4-.2.2-.4.4-.5.6s-.2.5-.2.7c0 .2 0 .5.1.8.1.3.2.5.4.8l2.3 2.8-.6.5-3.9-4.8.6-.6zM358.7 135.3l.4.5-1 .8 2.6 3.2.4.4c.1.1.3 0 .5-.1s.3-.3.5-.4l.4.5c-.1.1-.2.1-.3.2s-.2.2-.3.2c-.4.3-.7.5-1 .4-.3 0-.6-.2-.9-.7l-2.7-3.3-.8.7-.4-.5.8-.7-1.2-1.4.6-.5 1.2 1.4 1.2-.7zM363.5 128.3l.9-.6c.3-.2.6-.3.9-.3.3 0 .6 0 .9.1s.6.3.8.6c.1.2.3.4.3.6.1.2.1.4.1.6 0 .2 0 .4-.1.6l-.3.6c.5-.3 1-.4 1.5-.3s.9.3 1.3.8c.1.1.2.2.3.4s.2.3.2.5c.1.2.1.4.1.6 0 .2 0 .5-.1.7-.1.2-.2.5-.4.8s-.5.6-.8.9l-2.8 2.3-5.4-6.6 2.6-2.3zm2.4 2.9c.3-.2.5-.4.6-.6l.3-.6v-.6s-.1-.4-.3-.5c-.7-.8-1.5-.8-2.5 0l-2.2 1.8 1.9 2.4 2.2-1.9zm2.6 3.2l.6-.6c.2-.2.3-.4.4-.7s.1-.5 0-.7c-.1-.3-.2-.5-.4-.8-.3-.4-.8-.6-1.2-.6-.5 0-1 .3-1.6.7l-2.2 1.8 2.2 2.7 2.2-1.8z"/></g><path opacity=".5" clip-path="url(#b)" fill="#87888A" stroke="#fff" stroke-width="3" stroke-miterlimit="10" d="M24.6 165.1s42-51.7 91.4-47.7 63.5 50.5 182 69 155.6-56.5 194.4-56.7c41-.2 44 70.9 113 74.9v18.2H24.8l-.2-57.7z"/><g clip-path="url(#b)"><path d="M411.6 160c-.3-.2-.5-.3-.8-.3-.3-.1-.6-.1-.9 0-.3 0-.6.1-.9.3-.5.3-.9.6-1.2 1-.3.4-.4.8-.5 1.2-.1.4-.1.9 0 1.3.1.5.2.9.5 1.3.2.4.5.8.8 1.1.3.3.7.6 1.1.8s.8.3 1.3.3.9-.1 1.5-.4c.4-.2.6-.4.9-.7.2-.3.4-.6.5-.9.1-.3.1-.7.1-1s-.1-.7-.2-1.1l.7-.4c.2.5.3 1 .3 1.4 0 .5 0 .9-.2 1.3-.1.4-.4.8-.6 1.1-.3.3-.7.6-1.1.8-.6.3-1.2.5-1.7.5-.6 0-1.1-.1-1.6-.3s-.9-.5-1.3-.9-.7-.9-1-1.4-.4-1.1-.5-1.6c-.1-.6-.1-1.1 0-1.6s.3-1 .7-1.5.8-.8 1.4-1.1c.4-.2.7-.3 1.1-.4s.8-.1 1.2 0c.4.1.8.2 1.1.4.3.2.6.5.9.9l-.7.4c-.4-.1-.7-.3-.9-.5zM413.4 157.1l4.1 7.5-.7.4-4.1-7.5.7-.4zM415.2 156.1l.6 1.1-.7.4-.6-1.1.7-.4zm1.2 2.1l3 5.4-.7.4-3-5.4.7-.4zM420.1 160.9c.2.2.4.4.7.5s.5.2.8.2c.3 0 .6-.1.9-.3.5-.3.8-.6.9-1 .1-.4.1-.8 0-1.3l.7-.4c.2.7.2 1.3.1 1.9-.2.5-.6 1-1.3 1.4-.4.2-.8.4-1.2.4-.4 0-.8 0-1.1-.2s-.7-.4-1-.7c-.3-.3-.5-.6-.8-1-.2-.4-.4-.7-.5-1.1-.1-.4-.1-.8-.1-1.2 0-.4.2-.7.4-1.1.2-.3.5-.6 1-.9.4-.2.8-.4 1.3-.4.4 0 .8.1 1.1.3.4.2.7.4 1 .7.3.3.5.7.7 1l-4.1 2.4c.1.3.3.6.5.8zm2.1-3.9c-.2-.2-.4-.3-.7-.4-.2-.1-.5-.1-.8-.1-.3 0-.5.1-.8.2-.3.2-.5.3-.6.6-.1.2-.2.5-.3.7v.8c0 .3.1.6.2.8l3.5-2c-.1-.2-.3-.4-.5-.6zM423.4 154.1l.6.9c-.1-.4 0-.8.2-1.2.2-.4.5-.7.9-.9.4-.2.7-.4 1-.4.3-.1.6 0 .8 0 .3.1.5.2.7.4.2.2.4.5.6.8l2.1 3.4-.6.4-2-3.3c-.1-.2-.3-.4-.4-.6-.2-.2-.3-.3-.5-.4-.2-.1-.4-.1-.6-.1-.2 0-.5.1-.7.3s-.5.3-.6.6-.2.4-.3.7v.8c.1.3.2.5.3.8l1.9 3.1-.6.4-3.2-5.3.4-.4zM430.2 149.9l.3.5-1.1.7 2.2 3.5c.1.2.3.4.4.4.1.1.3.1.6-.1.2-.1.4-.2.5-.4l.3.5c-.1.1-.2.1-.3.2-.1.1-.2.1-.3.2-.4.3-.8.4-1 .3-.3-.1-.5-.3-.8-.8l-2.3-3.6-.9.6-.3-.5.9-.6-1-1.6.6-.4 1 1.6 1.2-.5zM435.5 143.7l7.5 5.3-.7.5-2.3-1.6-3.3 2.1.6 2.8-.7.5-1.8-9 .7-.6zm3.8 3.7l-3.8-2.8 1 4.6 2.8-1.8z"/></g><path clip-path="url(#b)" fill="#C1000D" stroke="#fff" stroke-width="3" stroke-miterlimit="10" d="M216.4 113.3c-10.7-36-17.8-68.9-27.2-68.9-13.1 0-26.5 41.9-42.3 68.9h69.5zM465 74.1c-19.7 4.7-45.3 20.2-72.4 39.2h185.2V76.8c-.1 0-56.3-16.2-112.8-2.7z"/><path d="M540.1 201.5h.7v4.6h3.1V202h.7v4.1h4.1v.8h-8.6v-5.4zM542.5 200h1.5c-.5-.2-.9-.5-1.2-.9-.3-.4-.4-.9-.4-1.4h.8c0 .3 0 .7.1.9.1.3.3.5.5.7.2.2.4.4.7.5.3.1.6.2.9.2h3.3v.8h-6.2v-.8zM546.6 196.5c.3-.1.6-.2.8-.4l.6-.6c.2-.3.2-.6.2-.9 0-.6-.1-1-.4-1.3s-.7-.5-1.2-.6v-.8c.7.2 1.2.5 1.6.9.4.4.6 1 .6 1.8 0 .5-.1.9-.3 1.3-.2.4-.4.6-.7.9-.3.2-.6.4-1 .5-.4.1-.8.2-1.3.2-.4 0-.8-.1-1.2-.2-.4-.1-.7-.3-1-.5-.3-.2-.6-.5-.7-.9-.2-.4-.3-.8-.3-1.3s.1-.9.3-1.3c.2-.4.5-.6.8-.9s.7-.4 1.1-.5c.4-.1.8-.1 1.3-.1v4.8c.3.1.5 0 .8-.1zm-2.3-3.7c-.3.1-.5.2-.7.4s-.4.4-.5.6c-.1.2-.2.5-.2.8 0 .3.1.6.2.8s.3.4.5.6.4.3.7.4c.3.1.5.2.8.2v-4c-.2.1-.5.1-.8.2zM546.6 190.3c.3-.1.6-.2.8-.4l.6-.6c.2-.3.2-.6.2-.9 0-.6-.1-1-.4-1.3s-.7-.5-1.2-.6v-.8c.7.2 1.2.5 1.6.9.4.4.6 1 .6 1.8 0 .5-.1.9-.3 1.3-.2.4-.4.6-.7.9-.3.2-.6.4-1 .5-.4.1-.8.2-1.3.2-.4 0-.8-.1-1.2-.2-.4-.1-.7-.3-1-.5-.3-.2-.6-.5-.7-.9-.2-.4-.3-.8-.3-1.3s.1-.9.3-1.3c.2-.4.5-.6.8-.9s.7-.4 1.1-.5c.4-.1.8-.1 1.3-.1v4.8c.3 0 .5 0 .8-.1zm-2.3-3.7c-.3.1-.5.2-.7.4s-.4.4-.5.6c-.1.2-.2.5-.2.8 0 .3.1.6.2.8s.3.4.5.6.4.3.7.4c.3.1.5.2.8.2v-4c-.2 0-.5.1-.8.2zM540.1 175.4h.7l7.2 5.6v-5.8h.7v6.7h-.7l-7.2-5.6v5.3h-.7v-6.2zM542.6 170.6c.2-.4.4-.7.7-.9.3-.2.6-.4 1-.6.4-.1.8-.2 1.3-.2s.9.1 1.3.2.7.3 1 .6.5.6.7.9.3.8.3 1.3-.1.9-.3 1.3-.4.7-.7.9-.6.4-1 .6c-.4.1-.8.2-1.3.2s-.9-.1-1.3-.2-.7-.3-1-.6c-.3-.2-.5-.6-.7-.9-.2-.4-.3-.8-.3-1.3s.1-1 .3-1.3zm.6 2.2c.2.3.4.5.6.7s.5.3.8.4c.3.1.6.1 1 .1s.6 0 1-.1.6-.2.8-.4.4-.4.6-.7c.2-.3.2-.6.2-.9s-.1-.7-.2-.9c-.2-.3-.4-.5-.6-.7s-.5-.3-.8-.4-.6-.1-1-.1-.7 0-1 .1c-.3.1-.6.2-.8.4s-.4.4-.6.7c-.2.3-.2.6-.2.9s0 .6.2.9zM542.5 167h1.1c-.4-.1-.7-.4-.9-.8-.2-.4-.3-.8-.3-1.2 0-.4.1-.8.2-1.1s.3-.5.5-.7c.2-.2.5-.3.8-.4.3-.1.6-.1 1-.1h4v.8H545c-.3 0-.5 0-.7.1-.2 0-.4.1-.6.3s-.3.3-.4.5c-.1.2-.1.5-.1.8 0 .3.1.6.2.8.1.2.3.4.4.6.2.2.4.3.7.4.3.1.5.1.8.2h3.6v.8h-6.2v-1zM546.6 160.8c.3-.1.6-.2.8-.4l.6-.6c.2-.3.2-.6.2-.9 0-.6-.1-1-.4-1.3s-.7-.5-1.2-.6v-.8c.7.2 1.2.5 1.6.9.4.4.6 1 .6 1.8 0 .5-.1.9-.3 1.3-.2.4-.4.6-.7.9-.3.2-.6.4-1 .5-.4.1-.8.2-1.3.2-.4 0-.8-.1-1.2-.2-.4-.1-.7-.3-1-.5-.3-.2-.6-.5-.7-.9-.2-.4-.3-.8-.3-1.3s.1-.9.3-1.3c.2-.4.5-.6.8-.9s.7-.4 1.1-.5c.4-.1.8-.1 1.3-.1v4.8c.3 0 .5-.1.8-.1zm-2.3-3.8c-.3.1-.5.2-.7.4s-.4.4-.5.6c-.1.2-.2.5-.2.8 0 .3.1.6.2.8s.3.4.5.6.4.3.7.4c.3.1.5.2.8.2v-4c-.2.1-.5.1-.8.2zM540.1 106.3c0-.4 0-.7.1-1l.3-.9s.4-.5.6-.6c.3-.2.6-.2 1-.2.2 0 .4 0 .7.1l.6.3c.2.1.3.3.4.5l.3.6c.1-.6.3-1 .7-1.3s.8-.5 1.4-.5h.5s.3.1.5.1c.2.1.4.2.5.3l.5.5s.2.5.3.8c.1.3.1.7.1 1.2v3.6H540v-3.5zm3.8 0c0-.3 0-.6-.1-.9l-.3-.6s-.3-.3-.5-.4-.4-.1-.6-.1c-1.1 0-1.6.6-1.6 1.9v2.8h3.1v-2.7zm4.1 0c0-.3 0-.6-.1-.9-.1-.3-.1-.5-.3-.7-.1-.2-.3-.4-.5-.5-.2-.1-.5-.2-.9-.2-.6 0-1 .2-1.2.6-.3.4-.4.9-.4 1.7v2.8h3.4v-2.8zM540.1 101.3h1.2v.8h-1.2v-.8zm2.4 0h6.2v.8h-6.2v-.8zM540.1 99.1h8.6v.8h-8.6v-.8zM540.1 96.9h8.6v.8h-8.6v-.8zM546.6 94.9c.3-.1.6-.2.8-.4l.6-.6c.2-.3.2-.6.2-.9 0-.6-.1-1-.4-1.3s-.7-.5-1.2-.6v-.8c.7.2 1.2.5 1.6.9.4.4.6 1 .6 1.8 0 .5-.1.9-.3 1.3-.2.4-.4.6-.7.9-.3.2-.6.4-1 .5-.4.1-.8.2-1.3.2-.4 0-.8-.1-1.2-.2-.4-.1-.7-.3-1-.5-.3-.2-.6-.5-.7-.9-.2-.4-.3-.8-.3-1.3s.1-.9.3-1.3c.2-.4.5-.6.8-.9s.7-.4 1.1-.5c.4-.1.8-.1 1.3-.1V95c.3 0 .5-.1.8-.1zm-2.3-3.8c-.3.1-.5.2-.7.4s-.4.4-.5.6c-.1.2-.2.5-.2.8 0 .3.1.6.2.8s.3.4.5.6.4.3.7.4c.3.1.5.2.8.2v-4c-.2.1-.5.1-.8.2zM548.7 84.4h-1.2c.2.1.4.2.6.4.2.2.3.3.4.5l.3.6c.1.2.1.5.1.7 0 .5-.1.9-.3 1.2-.2.3-.4.6-.7.9-.3.2-.6.4-1 .5-.4.1-.8.2-1.3.2-.4 0-.9-.1-1.3-.2s-.7-.3-1-.5c-.3-.2-.5-.5-.7-.9-.2-.3-.3-.8-.3-1.2 0-.2 0-.5.1-.7s.1-.4.3-.6c.1-.2.3-.4.4-.5.2-.1.4-.3.6-.3h-3.6v-.8h8.6v.7zm-2.2 4.2c.3-.1.6-.2.8-.4s.5-.4.6-.6c.2-.3.2-.6.2-.9 0-.4-.1-.7-.2-1-.2-.3-.4-.5-.6-.7s-.5-.3-.8-.4c-.3-.1-.6-.1-1-.1-.3 0-.6 0-1 .1s-.6.2-.8.4c-.2.2-.4.4-.6.7s-.2.6-.2 1 .1.7.2.9c.2.3.4.5.6.6.2.2.5.3.8.4s.6.1 1 .1.7 0 1-.1zM540.1 73.1h.7l7.2 5.6V73h.7v6.7h-.7l-7.2-5.6v5.3h-.7v-6.3zM542.6 68.2c.2-.4.4-.7.7-.9.3-.2.6-.4 1-.6.4-.1.8-.2 1.3-.2s.9.1 1.3.2.7.3 1 .6.5.6.7.9.3.8.3 1.3-.1.9-.3 1.3-.4.7-.7.9-.6.4-1 .6c-.4.1-.8.2-1.3.2s-.9-.1-1.3-.2-.7-.3-1-.6c-.3-.2-.5-.6-.7-.9-.2-.4-.3-.8-.3-1.3s.1-.9.3-1.3zm.6 2.2c.2.3.4.5.6.7s.5.3.8.4c.3.1.6.1 1 .1s.6 0 1-.1.6-.2.8-.4.4-.4.6-.7c.2-.3.2-.6.2-.9s-.1-.7-.2-.9c-.2-.3-.4-.5-.6-.7s-.5-.3-.8-.4-.6-.1-1-.1-.7 0-1 .1c-.3.1-.6.2-.8.4s-.4.4-.6.7c-.2.3-.2.6-.2.9s0 .6.2.9zM542.5 64.7h1.1c-.4-.1-.7-.4-.9-.8-.2-.4-.3-.8-.3-1.2 0-.4.1-.8.2-1.1s.3-.5.5-.7c.2-.2.5-.3.8-.4.3-.1.6-.1 1-.1h4v.8H545c-.3 0-.5 0-.7.1-.2 0-.4.1-.6.3s-.3.3-.4.5c-.1.2-.1.5-.1.8 0 .3.1.6.2.8.1.2.3.4.4.6.2.2.4.3.7.4.3.1.5.1.8.2h3.6v.8h-6.2v-1zM546.6 58.4c.3-.1.6-.2.8-.4l.6-.6c.2-.3.2-.6.2-.9 0-.6-.1-1-.4-1.3s-.7-.5-1.2-.6v-.8c.7.2 1.2.5 1.6.9.4.4.6 1 .6 1.8 0 .5-.1.9-.3 1.3-.2.4-.4.6-.7.9-.3.2-.6.4-1 .5-.4.1-.8.2-1.3.2-.4 0-.8-.1-1.2-.2-.4-.1-.7-.3-1-.5-.3-.2-.6-.5-.7-.9-.2-.4-.3-.8-.3-1.3s.1-.9.3-1.3c.2-.4.5-.6.8-.9s.7-.4 1.1-.5c.4-.1.8-.1 1.3-.1v4.8c.3 0 .5 0 .8-.1zm-2.3-3.7c-.3.1-.5.2-.7.4s-.4.4-.5.6c-.1.2-.2.5-.2.8 0 .3.1.6.2.8s.3.4.5.6.4.3.7.4c.3.1.5.2.8.2v-4c-.2 0-.5.1-.8.2z"/><path fill="none" stroke="#C1000D" stroke-width="2" stroke-miterlimit="10" d="M430.6 103.3H212.2M53.8 113.3V61.1"/><path fill="none" stroke="#fff" stroke-width="2" stroke-miterlimit="10" d="M426.8 103.3h-17M212.2 103.3h-19.4"/><path fill="#fff" d="M233.8 94.3h92v15h-92z"/><g fill="#C1000D"><path d="M240.3 97.8c.4 0 .7 0 1 .1l.9.3c.3.2.5.4.6.6.2.3.2.6.2 1 0 .2 0 .4-.1.7l-.3.6c-.1.2-.3.3-.5.4l-.6.3c.6.1 1 .3 1.3.7.3.4.5.9.5 1.4v.5c0 .2-.1.3-.1.5-.1.2-.2.4-.3.5-.1.2-.3.3-.5.5-.2.1-.5.2-.8.3-.3.1-.7.1-1.2.1h-3.6v-8.6h3.5zm0 3.7c.3 0 .6 0 .9-.1l.6-.3c.2-.1.3-.3.4-.5.1-.2.1-.4.1-.6 0-1.1-.6-1.6-1.9-1.6h-2.8v3.1h2.7zm0 4.1c.3 0 .6 0 .9-.1s.5-.1.7-.3c.2-.1.4-.3.5-.5s.2-.5.2-.9c0-.6-.2-1-.6-1.2-.4-.3-.9-.4-1.7-.4h-2.8v3.4h2.8zM245.3 97.8V99h-.8v-1.2h.8zm0 2.3v6.2h-.8v-6.2h.8zM247.5 97.8v8.6h-.8v-8.6h.8zM249.8 97.8v8.6h-.8v-8.6h.8zM251.8 104.3c.1.3.2.6.4.8l.6.6c.3.2.6.2.9.2.6 0 1-.1 1.3-.4.3-.3.5-.7.6-1.2h.8c-.2.7-.5 1.2-.9 1.6-.4.4-1 .6-1.8.6-.5 0-.9-.1-1.3-.3s-.6-.4-.9-.7c-.2-.3-.4-.6-.5-1-.1-.4-.2-.8-.2-1.3 0-.4.1-.8.2-1.2.1-.4.3-.7.5-1.1.2-.3.5-.6.9-.7s.8-.3 1.3-.3.9.1 1.3.3c.4.2.6.5.9.8.2.3.4.7.5 1.1.1.4.1.8.1 1.3h-4.8c0 .3 0 .6.1.9zm3.7-2.3c-.1-.3-.2-.5-.4-.7s-.4-.4-.6-.5c-.2-.1-.5-.2-.8-.2-.3 0-.6.1-.8.2-.2.1-.4.3-.6.5s-.3.4-.4.7-.2.5-.2.8h4c0-.3-.1-.6-.2-.8zM262.2 106.3v-1.2c-.1.2-.2.4-.4.6-.2.2-.3.3-.5.4l-.6.3s-.5.1-.7.1c-.5 0-.9-.1-1.2-.3-.3-.2-.6-.4-.9-.7-.2-.3-.4-.6-.5-1-.1-.4-.2-.8-.2-1.3 0-.4.1-.9.2-1.3s.3-.7.5-1c.2-.3.5-.5.9-.7.3-.2.8-.3 1.2-.3.2 0 .5 0 .7.1.2.1.4.1.6.3.2.1.4.3.5.4s.3.4.3.6v-3.6h.8v8.6h-.7zm-4.1-2.1c.1.3.2.6.4.8l.6.6c.3.2.6.2.9.2.4 0 .7-.1 1-.2.3-.2.5-.4.7-.6.2-.2.3-.5.4-.8.1-.3.1-.6.1-1 0-.3 0-.6-.1-1s-.2-.6-.4-.8c-.2-.2-.4-.5-.7-.6-.3-.2-.6-.2-1-.2s-.7.1-.9.2c-.3.2-.5.4-.6.6s-.3.5-.4.8c-.1.3-.1.6-.1 1-.1.4 0 .7.1 1zM271.4 97.8c.4 0 .7 0 1 .1l.9.3c.3.2.5.4.6.6.2.3.2.6.2 1 0 .2 0 .4-.1.7l-.3.6c-.1.2-.3.3-.5.4l-.6.3c.6.1 1 .3 1.3.7.3.4.5.9.5 1.4v.5c0 .2-.1.3-.1.5-.1.2-.2.4-.3.5-.1.2-.3.3-.5.5-.2.1-.5.2-.8.3-.3.1-.7.1-1.2.1h-3.6v-8.6h3.5zm0 3.7c.3 0 .6 0 .9-.1l.6-.3c.2-.1.3-.3.4-.5.1-.2.1-.4.1-.6 0-1.1-.6-1.6-1.9-1.6h-2.8v3.1h2.7zm0 4.1c.3 0 .6 0 .9-.1s.5-.1.7-.3c.2-.1.4-.3.5-.5s.2-.5.2-.9c0-.6-.2-1-.6-1.2-.4-.3-.9-.4-1.7-.4h-2.8v3.4h2.8zM275.8 101.1c.1-.3.3-.5.5-.6s.5-.3.8-.4.6-.1 1-.1c.3 0 .5 0 .8.1.3.1.5.1.7.3.2.1.4.3.5.6.1.3.2.6.2 1v3.3c0 .3.1.5.4.5h.2v.6h-.5c-.2 0-.3 0-.5-.1-.1-.1-.2-.1-.3-.2-.1-.1-.1-.2-.1-.3v-.4c-.1.2-.3.4-.4.5-.1.2-.3.3-.5.4s-.4.2-.6.2c-.2.1-.5.1-.8.1-.3 0-.6 0-.8-.1s-.5-.2-.7-.3c-.2-.1-.3-.3-.4-.6-.1-.2-.2-.5-.2-.8 0-.4.1-.8.3-1s.4-.4.8-.6c.3-.1.7-.2 1.1-.3.4-.1.8-.1 1.2-.1.2 0 .3 0 .4-.1s.2-.1.3-.1l.2-.2c0-.1.1-.2.1-.4 0-.3 0-.5-.1-.6-.1-.2-.2-.3-.3-.4-.1-.1-.3-.2-.5-.2s-.4-.1-.6-.1c-.5 0-.9.1-1.2.3-.3.2-.5.6-.5 1.1h-.8c.1-.4.2-.7.3-1zm3.8 1.8c0 .1-.1.2-.3.2s-.3.1-.4.1c-.3.1-.6.1-1 .1-.3 0-.6.1-.9.2-.3.1-.5.2-.7.4-.2.2-.3.4-.3.7 0 .2 0 .4.1.5s.2.3.3.4.3.2.4.2c.2.1.3.1.5.1.3 0 .6 0 .8-.1.3-.1.5-.2.7-.4.2-.2.4-.4.5-.6.1-.2.2-.5.2-.8l.1-1zM282.6 100.1v1.1c.1-.4.4-.7.8-.9s.8-.3 1.2-.3c.4 0 .8.1 1.1.2.3.1.5.3.7.5s.3.5.4.8c.1.3.1.6.1 1v4h-.8v-3.9c0-.3 0-.5-.1-.7 0-.2-.1-.4-.3-.6-.1-.2-.3-.3-.5-.4-.2-.1-.5-.1-.8-.1-.3 0-.6.1-.8.2-.2.1-.4.3-.6.4s-.3.4-.4.7c-.1.3-.1.5-.1.8v3.6h-.8v-6.2h.9zM293.1 106.3v-1.2c-.1.2-.2.4-.4.6-.2.2-.3.3-.5.4l-.6.3c-.2.1-.5.1-.7.1-.5 0-.9-.1-1.2-.3-.3-.2-.6-.4-.9-.7-.2-.3-.4-.6-.5-1s-.2-.8-.2-1.3c0-.4.1-.9.2-1.3s.3-.7.5-1c.2-.3.5-.5.9-.7.3-.2.8-.3 1.2-.3.2 0 .5 0 .7.1.2.1.4.1.6.3.2.1.4.3.5.4s.3.4.3.6v-3.6h.8v8.6h-.7zm-4.1-2.1c.1.3.2.6.4.8l.6.6c.3.2.6.2.9.2.4 0 .7-.1 1-.2.3-.2.5-.4.7-.6s.3-.5.4-.8c.1-.3.1-.6.1-1 0-.3 0-.6-.1-1s-.2-.6-.4-.8-.4-.5-.7-.6c-.3-.2-.6-.2-1-.2s-.7.1-.9.2c-.3.2-.5.4-.6.6s-.3.5-.4.8-.1.6-.1 1c-.1.4 0 .7.1 1zM295.4 100.1l1.6 5.3 1.5-5.3h.9l1.5 5.3 1.6-5.3h.8l-2 6.2h-.8l-1.5-5.2-1.5 5.2h-.8l-2-6.2h.7zM304.9 97.8V99h-.8v-1.2h.8zm0 2.3v6.2h-.8v-6.2h.8zM311.1 106.3v-1.2c-.1.2-.2.4-.4.6-.2.2-.3.3-.5.4l-.6.3c-.2.1-.5.1-.7.1-.5 0-.9-.1-1.2-.3-.3-.2-.6-.4-.9-.7-.2-.3-.4-.6-.5-1s-.2-.8-.2-1.3c0-.4.1-.9.2-1.3s.3-.7.5-1c.2-.3.5-.5.9-.7.3-.2.8-.3 1.2-.3.2 0 .5 0 .7.1.2.1.4.1.6.3.2.1.4.3.5.4s.3.4.3.6v-3.6h.8v8.6h-.7zm-4.1-2.1c.1.3.2.6.4.8l.6.6c.3.2.6.2.9.2.4 0 .7-.1 1-.2.3-.2.5-.4.7-.6s.3-.5.4-.8c.1-.3.1-.6.1-1 0-.3 0-.6-.1-1s-.2-.6-.4-.8-.4-.5-.7-.6c-.3-.2-.6-.2-1-.2s-.7.1-.9.2c-.3.2-.5.4-.6.6s-.3.5-.4.8-.1.6-.1 1c-.1.4 0 .7.1 1zM315.7 100.1v.6h-1.3v4.2c0 .2 0 .4.1.6.1.1.2.2.5.2h.6v.6h-.6c-.5 0-.9-.1-1.1-.3-.2-.2-.3-.6-.3-1.1v-4.2h-1.1v-.6h1.1v-1.9h.8v1.9h1.3zM317.5 97.8v3.4c.1-.4.4-.7.8-.9s.8-.3 1.2-.3c.4 0 .8.1 1.1.2.3.1.5.3.7.5s.3.5.4.8.1.6.1 1v4h-.8v-3.9c0-.3 0-.5-.1-.7s-.1-.4-.3-.6-.3-.3-.5-.4c-.2-.1-.5-.1-.8-.1-.3 0-.6.1-.8.2-.2.1-.4.3-.6.4s-.3.4-.4.7c-.1.3-.1.5-.2.8v3.6h-.8v-8.6h1z"/></g><circle fill="#fff" cx="192.8" cy="103.3" r="3"/><circle fill="#C1000D" cx="53.8" cy="113.3" r="3"/><circle fill="#fff" cx="426.8" cy="103.3" r="3"/><g fill="none" stroke="#C1000D" stroke-miterlimit="10"><path d="M40.8 113.8h2"/><path stroke-dasharray="1,3" d="M45.8 113.8h2"/><path stroke-dasharray="3,3,1,3" d="M49.8 113.8h485"/><path d="M535.8 113.8h2"/></g><path fill="#85B3ED" d="M534.1 117.3h3.5v90.5h-3.5z"/><path fill="#C1000D" d="M534.1 21.3h3.5v90.5h-3.5z"/><path d="M48.1 212.8v.7h-3v7.9h-.8v-7.9h-3v-.7h6.8zM49.8 212.8v1.2H49v-1.2h.8zm0 2.3v6.2H49v-6.2h.8zM51.9 215.1v1c.2-.4.5-.7.8-.9.3-.2.7-.3 1.2-.3.4 0 .8.1 1.1.3.3.2.6.5.7.9.2-.4.5-.7.8-.9.4-.2.7-.3 1.2-.3 1.4 0 2.1.7 2.1 2.2v4.2H59v-4.2c0-.5-.1-.9-.3-1.2-.2-.3-.6-.4-1.1-.4-.3 0-.6.1-.8.2s-.4.3-.5.5-.3.5-.3.8-.1.5-.1.8v3.5h-.8v-4.2c0-.2 0-.4-.1-.6 0-.2-.1-.4-.2-.5-.1-.1-.2-.2-.4-.3s-.4-.1-.6-.1c-.3 0-.6.1-.8.2-.2.1-.4.3-.6.5-.1.2-.3.4-.3.7-.1.3-.1.6-.1.9v3.5h-.8v-6.2h.7zM61.8 219.3c.1.3.2.6.4.8l.6.6c.3.2.6.2.9.2.6 0 1-.1 1.3-.4s.5-.7.6-1.2h.8c-.2.7-.5 1.2-.9 1.6-.4.4-1 .6-1.8.6-.5 0-.9-.1-1.3-.3-.4-.2-.6-.4-.9-.7-.2-.3-.4-.6-.5-1-.1-.4-.2-.8-.2-1.3 0-.4.1-.8.2-1.2.1-.4.3-.7.5-1 .2-.3.5-.6.9-.7.4-.2.8-.3 1.3-.3s.9.1 1.3.3c.4.2.6.5.9.8s.4.7.5 1.1c.1.4.1.8.1 1.3h-4.8c0 .2 0 .5.1.8zm3.7-2.3c-.1-.3-.2-.5-.4-.7s-.4-.4-.6-.5c-.2-.1-.5-.2-.8-.2-.3 0-.6.1-.8.2s-.4.3-.6.5-.3.4-.4.7c-.1.3-.2.5-.2.8h4c0-.3-.1-.6-.2-.8zM71.7 222.3c-.2-.4-.4-.9-.5-1.3-.1-.4-.3-.9-.3-1.4s-.1-1-.1-1.5c0-1 .1-2 .4-2.9.3-.9.7-1.8 1.2-2.6h.6c-.5.9-.9 1.8-1.2 2.8-.2 1-.4 2-.4 3.1 0 .4 0 .9.1 1.3.1.5.2.9.3 1.4.1.5.3.9.5 1.3l.6 1.2h-.6c-.2-.5-.4-1-.6-1.4zM75 214.5c.3 0 .5-.1.7-.2.2-.1.4-.3.5-.5s.2-.5.3-.9h.6v8.4h-.8v-6.2h-2.2v-.5c.4-.1.7-.1.9-.1zM81.1 212.8v3.4c.1-.4.4-.7.8-.9.4-.2.8-.3 1.2-.3.4 0 .8.1 1.1.2s.5.3.7.5c.2.2.3.5.4.8.1.3.1.6.1 1v4h-.8v-3.9c0-.3 0-.5-.1-.7 0-.2-.1-.4-.3-.6s-.3-.3-.5-.4c-.2-.1-.5-.1-.8-.1-.3 0-.6.1-.8.2-.2.1-.4.3-.6.4-.2.2-.3.4-.4.7-.1.3-.1.5-.2.8v3.6h-.8v-8.6h1zM87.5 215.1v1.5c.2-.5.5-.9.9-1.2.4-.3.9-.4 1.4-.4v.8c-.3 0-.7 0-.9.1-.3.1-.5.3-.7.5s-.4.4-.5.7c-.1.3-.2.6-.2.9v3.3h-.8v-6.2h.8zM91.2 213.9c.2.4.4.9.5 1.3.1.4.3.9.3 1.4s.1 1 .1 1.5c0 1-.2 2-.5 2.9s-.7 1.8-1.2 2.6h-.6c.5-.9.9-1.8 1.2-2.8.2-1 .4-2 .4-3.1 0-.4 0-.9-.1-1.3s-.2-.9-.3-1.4c-.1-.4-.3-.9-.5-1.3l-.6-1.2h.6c.2.5.5 1 .7 1.4z"/><path fill="none" stroke="#000" stroke-miterlimit="10" d="M96.8 218.8h14"/><path d="M109.2 220.7l.8-1.9-.8-1.8 4.4 1.8zM27.8 204.7c0-.4 0-.7.1-1l.3-.9s.4-.5.6-.6c.3-.2.6-.2 1-.2.2 0 .4 0 .7.1l.6.3c.2.1.3.3.4.5l.3.6c.1-.6.3-1 .7-1.3s.8-.5 1.4-.5h.5s.3.1.5.1c.2.1.4.2.5.3l.5.5s.2.5.3.8.1.7.1 1.2v3.6h-8.6v-3.5zm3.7 0c0-.3 0-.6-.1-.9s-.2-.4-.3-.6-.3-.3-.5-.4-.4-.1-.6-.1c-1.1 0-1.6.6-1.6 1.9v2.8h3.1v-2.7zm4.1 0c0-.3 0-.6-.1-.9-.1-.3-.1-.5-.3-.7-.1-.2-.3-.4-.5-.5-.2-.1-.5-.2-.9-.2-.6 0-1 .2-1.2.6-.3.4-.4.9-.4 1.7v2.8h3.4v-2.8zM31.1 200.3c-.3-.1-.5-.3-.6-.5s-.3-.5-.4-.8c-.1-.3-.1-.6-.1-1 0-.3 0-.5.1-.8.1-.3.2-.5.3-.7.1-.2.3-.4.6-.5.3-.1.6-.2 1-.2h3.3c.3 0 .5-.1.5-.4v-.2h.6v.5c0 .2 0 .3-.1.5-.1.1-.1.2-.2.3-.1.1-.2.1-.3.1h-.4c.2.1.4.3.5.4.2.1.3.3.4.5.1.2.2.4.2.6.1.2.1.5.1.8 0 .3 0 .6-.1.8-.1.3-.2.5-.3.7-.1.2-.3.3-.6.4-.2.1-.5.2-.8.2-.4 0-.8-.1-1-.3-.2-.2-.4-.4-.6-.8s-.2-.7-.3-1.1c-.1-.4-.1-.8-.2-1.2 0-.2 0-.3-.1-.4 0-.1-.1-.2-.1-.3l-.2-.2c-.1 0-.2-.1-.4-.1-.3 0-.5 0-.6.1s-.3.2-.4.3c-.1.1-.2.3-.2.5s-.1.4-.1.6c0 .5.1.9.3 1.2.2.3.6.5 1.1.5v.8l-.9-.3zm1.8-3.8c.1 0 .2.1.2.3 0 .1.1.3.1.4.1.3.1.7.2 1s.1.7.2.9c.1.3.2.5.4.7.2.2.4.3.7.3.2 0 .4 0 .5-.1s.3-.2.4-.3c.1-.1.2-.3.2-.4s.1-.3.1-.5c0-.3 0-.6-.1-.8s-.2-.5-.4-.7c-.2-.2-.4-.4-.6-.5-.2-.1-.5-.2-.8-.2l-1.1-.1zM30.1 193.5h1.1c-.4-.1-.7-.4-.9-.8-.2-.4-.3-.8-.3-1.2 0-.4.1-.8.2-1.1s.3-.5.5-.7c.2-.2.5-.3.8-.4.3-.1.6-.1 1-.1h4v.8h-3.9c-.3 0-.5 0-.7.1-.2 0-.4.1-.6.3-.2.1-.3.3-.4.5-.1.2-.1.5-.1.8s.1.6.2.8c.1.2.3.4.4.6.2.2.4.3.7.4.3.1.5.1.8.2h3.6v.8h-6.2v-1zM36.3 183h-1.2c.2.1.4.2.6.4s.3.3.4.5l.3.6c.1.2.1.5.1.7 0 .5-.1.9-.3 1.2s-.4.6-.7.9c-.3.2-.6.4-1 .5-.4.1-.8.2-1.3.2-.4 0-.9-.1-1.3-.2s-.7-.3-1-.5c-.3-.2-.5-.5-.7-.9-.2-.3-.3-.8-.3-1.2 0-.2 0-.5.1-.7.1-.2.1-.4.3-.6.1-.2.3-.4.4-.5.2-.1.4-.3.6-.3h-3.6v-.8h8.6v.7zm-2.1 4.2c.3-.1.6-.2.8-.4s.5-.4.6-.6c.2-.3.2-.6.2-.9 0-.4-.1-.7-.2-1-.2-.3-.4-.5-.6-.7s-.5-.3-.8-.4c-.3-.1-.6-.1-1-.1-.3 0-.6 0-1 .1-.3.1-.6.2-.8.4-.2.2-.4.4-.6.7-.2.3-.2.6-.2 1s.1.7.2.9.4.5.6.6c.2.2.5.3.8.4.3.1.6.1 1 .1s.7 0 1-.1zM30.1 180.7l5.3-1.6-5.3-1.5v-.9l5.3-1.5-5.3-1.6v-.8l6.2 2v.8l-5.2 1.5 5.2 1.5v.8l-6.2 2v-.7zM27.8 171.2H29v.8h-1.2v-.8zm2.3 0h6.2v.8h-6.2v-.8zM36.3 165h-1.2c.2.1.4.2.6.4.2.2.3.3.4.5l.3.6c.1.2.1.5.1.7 0 .5-.1.9-.3 1.2-.2.3-.4.6-.7.9s-.6.4-1 .5c-.4.1-.8.2-1.3.2-.4 0-.9-.1-1.3-.2s-.7-.3-1-.5c-.3-.2-.5-.5-.7-.9-.2-.3-.3-.8-.3-1.2 0-.2 0-.5.1-.7s.1-.4.3-.6c.1-.2.3-.4.4-.5.2-.1.4-.3.6-.3h-3.6v-.8h8.6v.7zm-2.1 4.2c.3-.1.6-.2.8-.4s.5-.4.6-.6c.2-.3.2-.6.2-.9 0-.4-.1-.7-.2-1-.2-.3-.4-.5-.6-.7-.2-.2-.5-.3-.8-.4-.3-.1-.6-.1-1-.1-.3 0-.6 0-1 .1-.3.1-.6.2-.8.4-.2.2-.4.4-.6.7s-.2.6-.2 1 .1.7.2.9.4.5.6.6c.2.2.5.3.8.4.3.1.6.1 1 .1s.7 0 1-.1zM30.1 160.4h.6v1.3H35c.2 0 .4 0 .6-.1s.2-.2.2-.5v-.6h.6v.6c0 .5-.1.9-.3 1.1-.2.2-.6.3-1.1.3h-4.2v1.1h-.6v-1.1h-1.9v-.8h1.9v-1.3zM27.8 158.6h3.4c-.4-.1-.7-.4-.9-.8-.2-.4-.3-.8-.3-1.2 0-.4.1-.8.2-1.1s.3-.5.5-.7c.2-.2.5-.3.8-.4.3-.1.6-.1 1-.1h4v.8h-3.9c-.3 0-.5 0-.7.1-.2 0-.4.1-.6.3s-.3.3-.4.5c-.1.2-.1.5-.1.8 0 .3.1.6.2.8.1.2.3.4.4.6.2.2.4.3.7.4.3.1.5.1.8.2h3.6v.8h-8.6v-1z"/><path fill="none" stroke="#000" stroke-miterlimit="10" d="M33.8 151.1v-13.7"/><path d="M35.7 138.8l-1.9-.8-1.8.8 1.8-4.4z"/><g fill="#C1000D"><path d="M55.8 30.5c.4 0 .7 0 1 .1l.9.3c.3.2.5.4.6.6.2.3.2.6.2 1 0 .2 0 .4-.1.7s-.2.4-.3.6c-.1.2-.3.3-.5.4l-.6.3c.6.1 1 .3 1.3.7.3.4.5.9.5 1.4v.5c0 .2-.1.3-.1.5-.1.2-.2.4-.3.5-.1.2-.3.3-.5.5-.2.1-.5.2-.8.3s-.8.1-1.3.1h-3.6v-8.6h3.6zm0 3.7c.3 0 .6 0 .9-.1l.6-.3c.2-.1.3-.3.4-.5.1-.2.1-.4.1-.6 0-1.1-.6-1.6-1.9-1.6H53v3.1h2.8zm0 4.1c.3 0 .6 0 .9-.1.3-.1.5-.1.7-.3.2-.1.4-.3.5-.5.1-.2.2-.5.2-.9 0-.6-.2-1-.6-1.2-.4-.3-.9-.4-1.7-.4H53v3.4h2.8zM60.8 30.5v1.2H60v-1.2h.8zm0 2.3V39H60v-6.2h.8zM63 30.5V39h-.8v-8.6h.8zM65.3 30.5V39h-.8v-8.6h.8zM67.3 37c.1.3.2.6.4.8l.6.6c.3.2.6.2.9.2.6 0 1-.1 1.3-.4.3-.3.5-.7.6-1.2h.8c-.2.7-.5 1.2-.9 1.6-.4.4-1 .6-1.8.6-.5 0-.9-.1-1.3-.3-.4-.2-.6-.4-.9-.7-.2-.3-.4-.6-.5-1-.1-.4-.2-.8-.2-1.3 0-.4.1-.8.2-1.2.1-.4.3-.7.5-1.1.2-.3.5-.6.9-.7.4-.2.8-.3 1.3-.3s.9.1 1.3.3c.4.2.6.5.9.8.2.3.4.7.5 1.1.1.4.1.8.1 1.3h-4.8c0 .3 0 .6.1.9zm3.7-2.3c-.1-.3-.2-.5-.4-.7s-.4-.4-.6-.5c-.2-.1-.5-.2-.8-.2-.3 0-.6.1-.8.2s-.4.3-.6.5-.3.4-.4.7c-.1.3-.2.5-.2.8h4c0-.3-.1-.6-.2-.8zM77.7 39v-1.2c-.1.2-.2.4-.4.6-.2.2-.3.3-.5.4l-.6.3c-.2.1-.5.1-.7.1-.5 0-.9-.1-1.2-.3-.3-.2-.6-.4-.9-.7-.2-.3-.4-.6-.5-1s-.2-.8-.2-1.3c0-.4.1-.9.2-1.3s.3-.7.5-1c.2-.3.5-.5.9-.7.3-.2.8-.3 1.2-.3.2 0 .5 0 .7.1.2.1.4.1.6.3.2.1.4.3.5.4s.3.4.3.6v-3.6h.8V39h-.7zm-4.1-2.1c.1.3.2.6.4.8l.6.6c.3.2.6.2.9.2.4 0 .7-.1 1-.2.3-.2.5-.4.7-.6s.3-.5.4-.8c.1-.3.1-.6.1-1 0-.3 0-.6-.1-1s-.2-.6-.4-.8-.4-.5-.7-.6c-.3-.2-.6-.2-1-.2s-.7.1-.9.2c-.3.2-.5.4-.6.6s-.3.5-.4.8-.1.6-.1 1c-.1.3 0 .7.1 1zM87.8 38.4v.6h-5.2v-.6l4-4.9h-3.8v-.6h4.7v.5l-4.1 5h4.4zM92.6 32.9c.4.2.7.4.9.7s.4.6.6 1 .2.8.2 1.3c0 .4-.1.9-.2 1.3s-.3.7-.6 1-.6.5-.9.7-.8.3-1.3.3-.9-.1-1.3-.3-.7-.4-.9-.7-.4-.6-.6-1-.2-.8-.2-1.3c0-.4.1-.9.2-1.3s.3-.7.6-1 .6-.5.9-.7.8-.3 1.3-.3.9.1 1.3.3zm-2.2.6c-.3.2-.5.4-.7.6-.2.2-.3.5-.4.8s-.1.6-.1 1c0 .3 0 .7.1 1s.2.6.4.8c.2.2.4.4.7.6.3.2.6.2.9.2s.7-.1.9-.2c.3-.2.5-.4.7-.6.2-.2.3-.5.4-.8s.1-.6.1-1c0-.3 0-.6-.1-1s-.2-.6-.4-.8c-.2-.2-.4-.4-.7-.6-.3-.2-.6-.2-.9-.2s-.6.1-.9.2zM96.1 32.8v1.1c.1-.4.4-.7.8-.9s.8-.3 1.2-.3c.4 0 .8.1 1.1.2.3.1.5.3.7.5s.3.5.4.8.1.6.1 1v4h-.8v-3.9c0-.3 0-.5-.1-.7s-.1-.4-.3-.6-.3-.3-.5-.4c-.2-.1-.5-.1-.8-.1-.3 0-.6.1-.8.2-.2.1-.4.3-.6.4s-.3.4-.4.7c-.1.3-.1.5-.2.8V39h-.8v-6.2h1zM102.4 37c.1.3.2.6.4.8l.6.6c.3.2.6.2.9.2.6 0 1-.1 1.3-.4.3-.3.5-.7.6-1.2h.8c-.2.7-.5 1.2-.9 1.6-.4.4-1 .6-1.8.6-.5 0-.9-.1-1.3-.3-.4-.2-.6-.4-.9-.7-.2-.3-.4-.6-.5-1-.1-.4-.2-.8-.2-1.3 0-.4.1-.8.2-1.2.1-.4.3-.7.5-1.1.2-.3.5-.6.9-.7.4-.2.8-.3 1.3-.3s.9.1 1.3.3c.4.2.6.5.9.8.2.3.4.7.5 1.1.1.4.1.8.1 1.3h-4.8c0 .3 0 .6.1.9zm3.7-2.3c-.1-.3-.2-.5-.4-.7s-.4-.4-.6-.5c-.2-.1-.5-.2-.8-.2-.3 0-.6.1-.8.2s-.4.3-.6.5-.3.4-.4.7c-.1.3-.2.5-.2.8h4c0-.3-.1-.6-.2-.8zM115 34c-.1-.2-.2-.3-.4-.4-.1-.1-.3-.2-.5-.2-.2-.1-.4-.1-.6-.1-.2 0-.3 0-.5.1-.2 0-.3.1-.5.2-.1.1-.3.2-.3.3s-.1.3-.1.5 0 .3.1.4l.3.3c.1.1.3.1.4.2.2.1.3.1.4.1l1 .2c.2 0 .4.1.6.2l.6.3c.2.1.3.3.4.5.1.2.2.4.2.7 0 .3-.1.6-.2.9-.2.2-.3.4-.6.6-.2.1-.5.3-.8.3s-.6.1-.9.1c-.7 0-1.3-.2-1.8-.5s-.7-.9-.8-1.7h.8c0 .5.2.9.6 1.2.3.3.8.4 1.3.4.2 0 .4 0 .6-.1.2 0 .4-.1.5-.2.2-.1.3-.2.4-.4.1-.1.2-.3.2-.5s0-.3-.1-.5l-.3-.3c-.1-.1-.3-.2-.4-.2-.2-.1-.3-.1-.5-.1l-1-.2c-.2-.1-.5-.1-.7-.2-.2-.1-.4-.2-.5-.3s-.3-.3-.4-.5c-.1-.2-.1-.4-.1-.7 0-.3.1-.6.2-.8.1-.2.3-.4.5-.5.2-.1.5-.2.8-.3.3-.1.5-.1.8-.1.3 0 .6 0 .9.1.3.1.5.2.7.4s.4.4.5.6c.1.2.2.5.2.9h-.8c-.1-.3-.1-.5-.2-.7zM119.6 32.8v.6h-1.3v4.2c0 .2 0 .4.1.6.1.1.2.2.5.2h.6v.6h-.6c-.5 0-.9-.1-1.1-.3-.2-.2-.3-.6-.3-1.1v-4.2h-1.1v-.6h1.1V31h.8v1.9h1.3zM120.9 33.8c.1-.3.3-.5.5-.6.2-.2.5-.3.8-.4s.6-.1 1-.1c.3 0 .5 0 .8.1.3.1.5.1.7.3s.4.3.5.6c.1.3.2.6.2 1V38c0 .3.1.5.4.5h.2v.5h-.5c-.2 0-.3 0-.5-.1-.1-.1-.2-.1-.3-.2-.1-.1-.1-.2-.1-.3V38c-.1.2-.3.4-.4.5-.1.2-.3.3-.5.4s-.4.2-.6.2c-.2.1-.5.1-.8.1-.3 0-.6 0-.8-.1s-.5-.2-.7-.3c-.2-.1-.3-.3-.4-.6-.1-.2-.2-.5-.2-.8 0-.4.1-.8.3-1 .2-.2.4-.4.8-.6.3-.1.7-.2 1.1-.3.4-.1.8-.1 1.2-.1.2 0 .3 0 .4-.1s.2-.1.3-.1.1-.1.2-.2c0-.1.1-.2.1-.4 0-.3 0-.5-.1-.6-.1-.2-.2-.3-.3-.4-.1-.1-.3-.2-.5-.2s-.4-.1-.6-.1c-.5 0-.9.1-1.2.3s-.5.6-.5 1.1h-.8l.3-.9zm3.8 1.8c0 .1-.1.2-.3.2s-.3.1-.4.1c-.3.1-.6.1-1 .1-.3 0-.7.1-.9.2-.3.1-.5.2-.7.4s-.3.4-.3.7c0 .2 0 .4.1.5s.2.3.3.4.3.2.4.2c.2.1.3.1.5.1.3 0 .6 0 .8-.1.3-.1.5-.2.7-.4s.4-.4.5-.6c.1-.2.2-.5.2-.8l.1-1zM127.7 32.8v1.5c.2-.5.5-.9.9-1.2s.9-.4 1.4-.4v.8c-.3 0-.7 0-.9.1-.3.1-.5.3-.7.5s-.4.4-.5.7c-.1.3-.2.6-.2.9V39h-.7v-6.2h.7zM133.2 32.8v.6h-1.3v4.2c0 .2 0 .4.1.6.1.1.2.2.5.2h.6v.6h-.6c-.5 0-.9-.1-1.1-.3-.2-.2-.3-.6-.3-1.1v-4.2H130v-.6h1.1V31h.8v1.9h1.3zM137.9 34c-.1-.2-.2-.3-.4-.4-.1-.1-.3-.2-.5-.2-.2-.1-.4-.1-.6-.1-.2 0-.3 0-.5.1-.2 0-.3.1-.5.2-.1.1-.3.2-.3.3s-.1.3-.1.5 0 .3.1.4l.3.3c.1.1.3.1.4.2.2.1.3.1.4.1l1 .2c.2 0 .4.1.6.2l.6.3c.2.1.3.3.4.5.1.2.2.4.2.7 0 .3-.1.6-.2.9-.2.2-.3.4-.6.6-.2.1-.5.3-.8.3s-.6.1-.9.1c-.7 0-1.3-.2-1.8-.5s-.7-.9-.8-1.7h.8c0 .5.2.9.6 1.2.3.3.8.4 1.3.4.2 0 .4 0 .6-.1.2 0 .4-.1.5-.2.2-.1.3-.2.4-.4.1-.1.2-.3.2-.5s0-.3-.1-.5l-.3-.3c-.1-.1-.3-.2-.4-.2-.2-.1-.3-.1-.5-.1l-1-.2c-.2-.1-.5-.1-.7-.2-.2-.1-.4-.2-.5-.3s-.3-.3-.4-.5c-.1-.2-.1-.4-.1-.7 0-.3.1-.6.2-.8.1-.2.3-.4.5-.5.2-.1.5-.2.8-.3.3-.1.5-.1.8-.1.3 0 .6 0 .9.1.3.1.5.2.7.4s.4.4.5.6c.1.2.2.5.2.9h-.9c0-.3-.1-.5-.1-.7zM143.6 33.8c.1-.3.3-.5.5-.6.2-.2.5-.3.8-.4s.6-.1 1-.1c.3 0 .5 0 .8.1.3.1.5.1.7.3s.4.3.5.6c.1.3.2.6.2 1V38c0 .3.1.5.4.5h.2v.5h-.5c-.2 0-.3 0-.5-.1-.1-.1-.2-.1-.3-.2-.1-.1-.1-.2-.1-.3V38c-.1.2-.3.4-.4.5-.1.2-.3.3-.5.4s-.4.2-.6.2c-.2.1-.5.1-.8.1-.3 0-.6 0-.8-.1s-.5-.2-.7-.3c-.2-.1-.3-.3-.4-.6-.1-.2-.2-.5-.2-.8 0-.4.1-.8.3-1 .2-.2.4-.4.8-.6.3-.1.7-.2 1.1-.3.4-.1.8-.1 1.2-.1.2 0 .3 0 .4-.1s.2-.1.3-.1.1-.1.2-.2c0-.1.1-.2.1-.4 0-.3 0-.5-.1-.6-.1-.2-.2-.3-.3-.4-.1-.1-.3-.2-.5-.2s-.4-.1-.6-.1c-.5 0-.9.1-1.2.3s-.5.6-.5 1.1h-.8c0-.3.1-.6.3-.9zm3.7 1.8c0 .1-.1.2-.3.2s-.3.1-.4.1c-.3.1-.6.1-1 .1-.3 0-.7.1-.9.2-.3.1-.5.2-.7.4s-.3.4-.3.7c0 .2 0 .4.1.5s.2.3.3.4.3.2.4.2c.2.1.3.1.5.1.3 0 .6 0 .8-.1.3-.1.5-.2.7-.4s.4-.4.5-.6c.1-.2.2-.5.2-.8l.1-1zM152.1 32.8v.6h-1.3v4.2c0 .2 0 .4.1.6.1.1.2.2.5.2h.6v.6h-.6c-.5 0-.9-.1-1.1-.3-.2-.2-.3-.6-.3-1.1v-4.2h-1v-.6h1.1V31h.8v1.9h1.2zM52.9 54.4c-.2-.4-.4-.9-.5-1.3-.1-.4-.3-.9-.3-1.4-.1-.5-.1-1-.1-1.5 0-1 .1-2 .4-2.9.3-.9.7-1.8 1.2-2.6h.6c-.5.9-.9 1.8-1.2 2.8-.2 1-.4 2-.4 3.1 0 .4 0 .9.1 1.3.1.5.2.9.3 1.4.1.5.3.9.5 1.3l.6 1.2h-.6c-.1-.5-.4-1-.6-1.4zM55.7 47.2v1.1c.1-.4.4-.7.8-.9s.8-.3 1.2-.3c.4 0 .8.1 1.1.2.3.1.5.3.7.5s.3.5.4.8.1.6.1 1v4h-.8v-3.9c0-.3 0-.5-.1-.7s-.1-.4-.3-.6-.3-.3-.5-.4c-.2-.1-.5-.1-.8-.1-.3 0-.6.1-.8.2-.2.1-.4.3-.6.4s-.3.4-.4.7c-.1.3-.1.5-.2.8v3.6h-.8v-6.2h1zM62 46c.2.4.4.9.5 1.3.1.4.3.9.3 1.4s.1 1 .1 1.5c0 1-.2 2-.5 2.9s-.7 1.8-1.2 2.6h-.6c.5-.9.9-1.8 1.2-2.8.2-1 .4-2 .4-3.1 0-.4 0-.9-.1-1.3-.1-.5-.2-.9-.3-1.4-.1-.4-.3-.9-.5-1.3l-.6-1.2h.6c.2.5.5.9.7 1.4zM68.4 44.9v1.2h-.8v-1.2h.8zm0 2.3v6.2h-.8v-6.2h.8zM70.6 47.2v1.1c.1-.4.4-.7.8-.9s.8-.3 1.2-.3c.4 0 .8.1 1.1.2.3.1.5.3.7.5s.3.5.4.8.1.6.1 1v4h-.8v-3.9c0-.3 0-.5-.1-.7s-.1-.4-.3-.6-.3-.3-.5-.4c-.2-.1-.5-.1-.8-.1-.3 0-.6.1-.8.2-.2.1-.4.3-.6.4s-.3.4-.4.7c-.1.3-.1.5-.2.8v3.6h-.8v-6.2h1zM79.8 48.4c-.1-.2-.2-.3-.4-.4-.1-.1-.3-.2-.5-.2-.2-.1-.4-.1-.6-.1-.2 0-.3 0-.5.1-.2 0-.3.1-.5.2-.1.1-.3.2-.3.3s-.1.3-.1.5 0 .3.1.4l.3.3c.1.1.3.1.4.2.2.1.3.1.4.1l1 .2c.2 0 .4.1.6.2l.6.3c.2.1.3.3.4.5.1.2.2.4.2.7 0 .3-.1.6-.2.9-.2.2-.3.4-.6.6-.2.1-.5.3-.8.3s-.6.1-.9.1c-.7 0-1.3-.2-1.8-.5s-.7-.9-.8-1.7h.8c0 .5.2.9.6 1.2.3.3.8.4 1.3.4.2 0 .4 0 .6-.1.2 0 .4-.1.5-.2.2-.1.3-.2.4-.4.1-.1.2-.3.2-.5s0-.3-.1-.5l-.3-.3c-.1-.1-.3-.2-.4-.2-.2-.1-.3-.1-.5-.1l-1-.2c-.2-.1-.5-.1-.7-.2-.2-.1-.4-.2-.5-.3s-.3-.3-.4-.5c-.1-.2-.1-.4-.1-.7 0-.3.1-.6.2-.8.1-.2.3-.4.5-.5.2-.1.5-.2.8-.3.3-.1.5-.1.8-.1.3 0 .6 0 .9.1.3.1.5.2.7.4s.4.4.5.6c.1.2.2.5.2.9H80c0-.3-.1-.5-.2-.7zM84.5 47.2v.6h-1.3V52c0 .2 0 .4.1.6.1.1.2.2.5.2h.6v.6h-.6c-.5 0-.9-.1-1.1-.3-.2-.2-.3-.6-.3-1.1v-4.2h-1.1v-.6h1.1v-1.9h.8v1.9h1.3zM85.8 48.2c.1-.3.3-.5.5-.6.2-.2.5-.3.8-.4s.6-.1 1-.1c.3 0 .5 0 .8.1.3.1.5.1.7.3s.4.3.5.6c.1.3.2.6.2 1v3.3c0 .3.1.5.4.5h.2v.6h-.5c-.2 0-.3 0-.5-.1-.1-.1-.2-.1-.3-.2-.1-.1-.1-.2-.1-.3v-.4c-.1.2-.3.4-.4.5-.1.2-.3.3-.5.4s-.4.2-.6.2c-.2.1-.5.1-.8.1-.3 0-.6 0-.8-.1s-.5-.2-.7-.3c-.2-.1-.3-.3-.4-.6-.1-.2-.2-.5-.2-.8 0-.4.1-.8.3-1 .2-.2.4-.4.8-.6.3-.1.7-.2 1.1-.3.4-.1.8-.1 1.2-.1.2 0 .3 0 .4-.1s.2-.1.3-.1.1-.1.2-.2c0-.1.1-.2.1-.4 0-.3 0-.5-.1-.6-.1-.2-.2-.3-.3-.4-.1-.1-.3-.2-.5-.2s-.4-.1-.6-.1c-.5 0-.9.1-1.2.3s-.5.6-.5 1.1h-.8c.1-.4.1-.7.3-1zm3.7 1.8c0 .1-.1.2-.3.2s-.3.1-.4.1c-.3.1-.6.1-1 .1-.3 0-.7.1-.9.2-.3.1-.5.2-.7.4s-.2.4-.2.7c0 .2 0 .4.1.5s.2.3.3.4.3.2.4.2c.2.1.3.1.5.1.3 0 .6 0 .8-.1.3-.1.5-.2.7-.4s.4-.4.5-.6c.1-.2.2-.5.2-.8v-1zM92.6 47.2v1.1c.1-.4.4-.7.8-.9s.8-.3 1.2-.3c.4 0 .8.1 1.1.2.3.1.5.3.7.5s.3.5.4.8.1.6.1 1v4h-.8v-3.9c0-.3 0-.5-.1-.7s-.1-.4-.3-.6-.3-.3-.5-.4c-.2-.1-.5-.1-.8-.1-.3 0-.6.1-.8.2-.2.1-.4.3-.6.4s-.3.4-.4.7c-.1.3-.1.5-.2.8v3.6h-.8v-6.2h1zM102.1 48.1c-.3-.3-.7-.4-1.2-.4-.4 0-.7.1-.9.2-.3.2-.5.4-.7.6-.2.2-.3.5-.4.8s-.1.6-.1 1c0 .3 0 .7.1 1s.2.6.4.8c.2.2.4.4.7.6.3.2.6.2.9.2.2 0 .5 0 .7-.1s.4-.2.6-.4c.2-.2.3-.3.4-.6.1-.2.2-.5.2-.7h.8c-.1.8-.4 1.3-.8 1.8-.4.4-1 .6-1.7.6-.5 0-.9-.1-1.3-.3s-.7-.4-.9-.7-.4-.6-.6-1-.3-.7-.3-1.2c0-.4.1-.9.2-1.3s.3-.7.6-1 .6-.5.9-.7.8-.3 1.3-.3c.7 0 1.2.2 1.7.5.5.4.7.9.8 1.6h-.8c-.2-.4-.4-.8-.6-1zM105.1 51.4c.1.3.2.6.4.8l.6.6c.3.2.6.2.9.2.6 0 1-.1 1.3-.4.3-.3.5-.7.6-1.2h.8c-.2.7-.5 1.2-.9 1.6-.4.4-1 .6-1.8.6-.5 0-.9-.1-1.3-.3-.4-.2-.6-.4-.9-.7-.2-.3-.4-.6-.5-1-.1-.4-.2-.8-.2-1.3 0-.4.1-.8.2-1.2.1-.4.3-.7.5-1.1.2-.3.5-.6.9-.7.4-.2.8-.3 1.3-.3s.9.1 1.3.3c.4.2.6.5.9.8.2.3.4.7.5 1.1.1.4.1.8.1 1.3H105c-.1.3 0 .6.1.9zm3.7-2.3c-.1-.3-.2-.5-.4-.7s-.4-.4-.6-.5c-.2-.1-.5-.2-.8-.2-.3 0-.6.1-.8.2s-.4.3-.6.5-.3.4-.4.7c-.1.3-.2.5-.2.8h4c-.1-.3-.1-.6-.2-.8zM114.3 48.4c-.1-.2-.2-.3-.4-.4-.1-.1-.3-.2-.5-.2-.2-.1-.4-.1-.6-.1-.2 0-.3 0-.5.1-.2 0-.3.1-.5.2-.1.1-.3.2-.3.3s-.1.3-.1.5 0 .3.1.4l.3.3c.1.1.3.1.4.2.2.1.3.1.4.1l1 .2c.2 0 .4.1.6.2l.6.3c.2.1.3.3.4.5.1.2.2.4.2.7 0 .3-.1.6-.2.9-.2.2-.3.4-.6.6-.2.1-.5.3-.8.3s-.6.1-.9.1c-.7 0-1.3-.2-1.8-.5s-.7-.9-.8-1.7h.8c0 .5.2.9.6 1.2.3.3.8.4 1.3.4.2 0 .4 0 .6-.1.2 0 .4-.1.5-.2.2-.1.3-.2.4-.4.1-.1.2-.3.2-.5s0-.3-.1-.5l-.3-.3c-.1-.1-.3-.2-.4-.2-.2-.1-.3-.1-.5-.1l-1-.2c-.2-.1-.5-.1-.7-.2-.2-.1-.4-.2-.5-.3s-.3-.3-.4-.5c-.1-.2-.1-.4-.1-.7 0-.3.1-.6.2-.8.1-.2.3-.4.5-.5.2-.1.5-.2.8-.3.3-.1.5-.1.8-.1.3 0 .6 0 .9.1.3.1.5.2.7.4s.4.4.5.6c.1.2.2.5.2.9h-.8c-.1-.3-.1-.5-.2-.7zM119.6 45.8l1.4.5v-1.5h.5v1.5l1.4-.5.2.4-1.4.5.9 1.2-.4.3-.9-1.2-.9 1.2-.4-.3.9-1.2-1.4-.5.1-.4zM128.7 46.6c.3 0 .5-.1.7-.2.2-.1.4-.3.5-.5s.2-.5.3-.9h.6v8.4h-.8v-6.2h-2.2v-.5c.4-.1.7-.1.9-.1zM137.6 45h.7v5.7h1.3v.6h-1.3v2.1h-.7v-2.1h-3.9v-.7l3.9-5.6zm0 1.1l-3.2 4.6h3.2v-4.6zM144.9 45.4c.4.3.7.6.9 1s.4.9.4 1.4c.1.5.1 1 .1 1.5s0 1-.1 1.5-.2 1-.4 1.4-.5.8-.9 1-.9.4-1.5.4-1.1-.1-1.5-.4c-.4-.3-.7-.6-.9-1s-.4-.9-.4-1.4c-.1-.5-.1-1-.1-1.5s0-1 .1-1.5.2-1 .4-1.4.5-.8.9-1c.4-.3.9-.4 1.5-.4.6-.1 1.1.1 1.5.4zm-2.7.6c-.3.2-.5.6-.7.9l-.3 1.2c0 .4-.1.8-.1 1.2 0 .4 0 .8.1 1.2 0 .4.1.8.3 1.2.1.4.4.7.7.9.3.2.7.4 1.2.4s.9-.1 1.2-.4c.3-.2.5-.6.7-.9l.3-1.2c0-.4.1-.8.1-1.2 0-.4 0-.8-.1-1.2 0-.4-.1-.8-.3-1.2-.1-.4-.4-.7-.7-.9s-.7-.4-1.2-.4-.9.1-1.2.4zM148.7 44.9l2.8 7.5 3-7.5h1.2v8.6h-.8V46l-2.9 7.4h-.8l-2.8-7.4v7.4h-.8v-8.6h1.1zM161 44.9c.4 0 .7 0 1 .1l.9.3c.3.2.5.4.6.6.2.3.2.6.2 1 0 .2 0 .4-.1.7s-.2.4-.3.6c-.1.2-.3.3-.5.4l-.6.3c.6.1 1 .3 1.3.7.3.4.5.9.5 1.4v.5c0 .2-.1.3-.1.5-.1.2-.2.4-.3.5-.1.2-.3.3-.5.5-.2.1-.5.2-.8.3s-.7.1-1.2.1h-3.6v-8.6h3.5zm0 3.7c.3 0 .6 0 .9-.1l.6-.3c.2-.1.3-.3.4-.5.1-.2.1-.4.1-.6 0-1.1-.6-1.6-1.9-1.6h-2.8v3.1h2.7zm0 4.1c.3 0 .6 0 .9-.1.3-.1.5-.1.7-.3.2-.1.4-.3.5-.5.1-.2.2-.5.2-.9 0-.6-.2-1-.6-1.2-.4-.3-.9-.4-1.7-.4h-2.8v3.4h2.8z"/></g></svg>